<?xml version="1.0" encoding="utf-8"?>
<!-- Generator: Adobe Illustrator 19.2.1, SVG Export Plug-In . SVG Version: 6.00 Build 0)  -->
<svg version="1.1" xmlns="http://www.w3.org/2000/svg" xmlns:xlink="http://www.w3.org/1999/xlink" x="0px" y="0px"
	 viewBox="0 0 200 200" style="enable-background:new 0 0 200 200;" xml:space="preserve">
<style type="text/css">
	.st0{fill-rule:evenodd;clip-rule:evenodd;fill:#878787;}
	.st1{fill:#7BCDDB;}
</style>
<g id="Capa_1">
	<polygon id="Catamarca" class="st0" points="169.1,177 171.5,176.1 170.8,175.1 170.4,174.2 170.3,174 170,173.2 167.6,169.1 
		166.1,165.3 164.5,153.4 164.7,150 164.1,142.1 163.9,141.5 163.9,141.2 163.7,141 163,140.3 161.5,139.5 161.2,139.4 161.1,139.4 
		161,139.2 161,139 160.9,137.6 161,137.3 161.1,137.1 161.7,136.8 161.9,136.6 162.4,135.7 162.9,134.9 163.7,134 164.1,133.4 
		164.6,132.4 164.8,130 164.5,124 161.3,109.3 160.4,109.8 159.7,109.9 159.3,109.8 158.7,109.7 158,109.3 157.3,108.8 156.6,108.1 
		156.1,107.7 155.5,107.4 155.2,107.4 155,107.4 152,109.3 150.9,110.4 149.7,111.4 149.5,111.6 148.6,112.8 148.5,112.9 
		147.8,114.8 147.5,115.1 147.1,115 144.1,111.2 143.7,110.7 143.2,109.2 142.9,107 142.5,105.9 142.4,105.6 142,105.3 140.4,104.4 
		139.8,104.4 139.5,104.6 139.1,104.9 138.2,105.1 137.5,104.7 137.3,104.5 137.1,104.1 137,103.6 136.8,102.7 136.3,101.1 
		136.1,100.8 135.9,100.5 135.5,100.3 135.1,100 134.7,99.6 134.5,99.3 134.3,99 134.2,98.6 134,96.9 133.5,96 132.3,90 132.6,89.1 
		132.6,88.9 132.5,88.6 132.2,88.5 132,88.4 131,88.3 128.4,86.8 128,86.7 126.8,86.5 126,86.3 125.3,86.1 125,85.8 124.9,85.6 
		124.9,85.4 125,85.2 125.9,83.8 126.5,82.3 127.7,81.1 128.4,80.4 129.2,79.7 129.4,79.3 129.5,79.1 129.6,78.7 129.8,78.2 
		130.4,77 131.3,75.9 132.5,74.6 135,72.1 135.9,70.5 136.3,69.5 136.5,68.9 136.5,68.4 136.5,66.1 136.5,65.6 137.1,63.3 137.1,63 
		137.1,62.5 137.1,62.1 137,61.8 136.9,61.6 136.9,61.4 136.6,61.1 136.5,61 136.3,60.9 134.8,60.1 132.5,58.2 131.2,56.9 
		130.7,56.6 129.9,56.2 129,55.9 128.3,55.8 127.5,55.6 127,55.2 126.4,54.4 126.2,53.9 126.2,53.5 126.3,52.8 126.9,50.9 
		127.7,49.2 128,48.1 128.2,47.3 128.2,46.6 128.2,45.9 128.5,45.3 129,44.7 129.4,44.3 129.6,44 129.9,43.2 128.4,42.3 127.5,41.3 
		126.7,40.2 126.2,39.8 125.6,39.7 125,39.6 124.4,39.7 123.8,39.9 123.4,40.2 123.1,40.6 122.5,41.9 121.5,42.4 121.3,42.5 
		121.1,42.8 120.7,43.6 119.1,47.6 118.9,47.9 118.7,48.1 118.4,48.4 118.1,48.5 117.8,48.5 117.6,48.5 117.4,48.4 117.2,48.3 
		116.9,48 115.8,46.9 113.5,44.3 112.8,43.4 111.5,40.1 110.6,39.2 110.3,38.7 109.8,36.9 106.9,33.3 104,29 103.3,27.5 102.8,25.7 
		102.8,24.1 102.8,23.1 102.9,22.7 103,22.5 103.1,22.2 103.4,22 103.7,21.7 103.9,21.6 104.5,21.2 105.1,20.5 105.3,20.4 
		105.5,20.3 105.7,20.2 108,20.2 109.4,20 110.9,20.1 111.3,20 111.5,20 111.8,19.8 113.6,18.5 114.1,17.9 114.2,17.7 114.3,17.4 
		114.3,17.2 114.2,16.8 114.2,16.4 115.1,13.3 115.1,12.9 115.1,12.6 115.1,12.4 114.9,12 114.5,11.4 113.9,10.6 113.4,9.8 
		113.3,9.7 113.2,9.3 113.2,9.1 112.8,6.1 112.7,5.7 112.4,5 112.2,4.7 112.1,4.5 111.9,4.4 111.6,4.3 110.4,4.3 67.6,4.8 43.4,0.1 
		43,0 42.3,0.9 41,5.2 39.1,10.9 39,12.4 39.1,13.1 39.3,13.8 40.6,15.4 41,16.2 40.5,16.8 40.8,17.7 40.8,18.7 40.8,19.8 
		41.4,20.8 42.1,21.5 42.6,22.4 43,23.4 43.4,26.7 45.9,36.8 46.2,38.8 45.8,40.2 41.3,43.8 40.2,45.1 39.8,46.5 39.6,48.1 
		39.5,51.2 39.8,53.3 40.4,54.9 41.3,56.5 42.6,58.1 49.3,67.7 49.8,68.8 50,69.9 49.8,70.6 49.2,72.1 49,72.8 48.9,73.3 49,74.3 
		48.9,74.6 48.7,74.7 47.7,74.6 47.3,74.6 45.7,75.3 44.9,75.5 43.1,75.6 42.3,75.9 41.5,76.4 40.9,77.1 40.5,78 40.2,78.8 
		39.9,79.3 39,79.5 37.6,78.9 36.4,77.9 35.1,77.1 33.5,77 32.2,77.3 31.7,77.6 31.2,78.3 29.7,80.8 29.4,81.7 29.4,82.4 29.4,84 
		29.3,84.6 27.6,88.6 27.2,89.2 26.6,89.7 25.4,90.3 24.8,90.8 24.5,91.3 24.4,91.8 24.4,92.3 24.6,92.8 24.5,93.8 24.1,94.9 
		23.2,96.8 22.9,97.3 22.1,98 21.9,98.5 21.8,99.1 22,99.6 22.3,100.1 22.4,100.7 22.3,101 21.3,101.5 20.9,101.8 20.7,102.2 
		20.4,103.8 20.9,103.8 30.5,104.6 32.9,104 33.6,103.6 33.9,103.5 36.4,103.2 37.3,103 37.7,102.9 38,103 38.2,103.1 39,103.5 
		39.3,103.7 39.9,103.8 40.2,103.8 40.5,103.8 41,103.5 41.2,103.4 41.5,103.2 41.7,102.9 42.2,102.5 42.6,102.4 42.9,102.3 
		44.6,102.5 45,102.6 45.2,102.7 45.3,102.9 45.4,103.1 45.5,103.3 45.5,103.5 45.5,103.7 45.4,104.2 44.8,106.2 44.8,106.4 
		44.7,106.9 44.8,107.4 44.9,107.8 44.9,107.9 45.3,108.6 45.4,108.8 45.4,109 45.4,109.3 45.4,109.5 44.9,111.6 44.8,112.1 
		44.8,112.3 44.8,112.5 44.9,112.9 45,112.9 45,113 45.5,113.3 45.8,113.4 46,113.5 46.5,113.4 47.1,113.4 47.7,113.5 48,113.6 
		48.3,113.7 48.6,113.9 49,114.2 49.5,114.8 49.8,115.5 50.2,115.9 50.5,116.2 50.8,116.4 51.1,116.5 51.4,116.5 52.5,116.4 
		53.4,116.6 55,117 55.3,117.2 55.5,117.3 55.8,117.6 56.1,118 56.2,118.2 56.6,118.7 57.1,119 57.4,119.1 57.7,119.2 58.1,119.1 
		58.8,118.8 59.5,118.4 60.1,118.2 60.3,118.1 60.8,118.1 61.2,118.1 61.8,117.8 62,117.7 62.5,117.7 62.9,117.8 63.1,117.9 
		63.2,118.1 63.2,118.4 63.1,119.1 63.1,119.4 63.2,120 63.4,121.6 63.7,123 63.8,123.1 65.5,125.6 66,126.2 66.2,126.5 66.3,126.6 
		66.4,126.8 66.5,127.5 66.6,127.9 66.9,128.4 67.5,128.3 68.4,127.5 69,127.2 71.2,126.6 87,127.4 89.6,127.3 92.3,126.9 
		92.7,126.7 93.1,126.5 93.3,126.2 94,125.5 94.1,125.2 94.2,125 94.3,124.8 94.4,124.7 94.5,124.5 94.7,124.4 95.2,124.2 96,123.7 
		97.1,123.7 104.1,126.3 111,129.2 112.2,130.8 113.4,131.8 113.7,132.3 113.9,132.7 114.1,132.9 114.2,133.1 114.5,134.5 
		115,137.7 115.3,138.4 116.5,140.2 117.7,141.3 118.3,141.8 118.5,142 119.3,142.3 119.8,142.7 119.9,142.9 119.9,143.2 
		119.9,143.5 119.8,143.7 119.1,144.8 118.8,145.2 118.6,145.4 118.4,145.9 118.3,146.3 118.3,146.5 118.4,146.7 118.9,147.5 
		119.2,147.8 119.9,148.3 125.9,151.1 127.5,152.2 131.8,156.7 132.5,157 132.9,157.2 139.2,163.6 140.3,165.6 140.5,166.2 
		140.6,166.6 140.6,168.6 140.6,169.3 140.6,169.8 141,172.3 141.4,173.9 143.7,179.3 145.8,184 147.1,187.8 153.1,200 160.7,197.8 
		162.4,196.8 165.5,193.6 169.4,189.2 169.7,188.6 169.8,187.8 168.7,178.3 	"/>
</g>
<g id="Capa_2">
	<path class="st1" d="M142.3,120.6c0.1,0,0.3,0,0.4,0.1c1.9,0.3,3.2,1.3,4,3c0.6,1.5,0.5,3-0.2,4.4c-0.8,1.4-1.6,2.8-2.4,4.2
		c-0.3,0.6-0.6,1.1-1,1.7c-0.4,0.7-1.4,0.8-1.9,0.2c-0.1-0.1-0.1-0.2-0.2-0.2c-1.1-1.8-2.1-3.7-3.2-5.5c-0.5-0.9-0.8-1.8-0.8-2.8
		c0-1.5,0.6-2.8,1.8-3.8c0.7-0.6,1.6-1,2.5-1.1c0.1,0,0.3,0,0.4-0.1C141.9,120.6,142.1,120.6,142.3,120.6z M140.2,125.3
		c0,1,0.8,1.8,1.8,1.8c1,0,1.8-0.8,1.8-1.8c0-1-0.8-1.8-1.8-1.8C141,123.5,140.2,124.3,140.2,125.3z"/>
</g>
</svg>
