<?xml version="1.0" encoding="utf-8"?>
<!-- Generator: Adobe Illustrator 19.2.1, SVG Export Plug-In . SVG Version: 6.00 Build 0)  -->
<svg version="1.1" xmlns="http://www.w3.org/2000/svg" xmlns:xlink="http://www.w3.org/1999/xlink" x="0px" y="0px"
	 viewBox="0 0 200 200" style="enable-background:new 0 0 200 200;" xml:space="preserve">
<style type="text/css">
	.st0{display:none;fill-rule:evenodd;clip-rule:evenodd;fill:#878787;}
	.st1{fill-rule:evenodd;clip-rule:evenodd;fill:#878787;}
	.st2{fill:#7BCDDB;}
</style>
<g id="Capa_1">
	<polygon id="Catamarca" class="st0" points="169.1,177 171.5,176.1 170.8,175.1 170.4,174.2 170.3,174 170,173.2 167.6,169.1 
		166.1,165.3 164.5,153.4 164.7,150 164.1,142.1 163.9,141.5 163.9,141.2 163.7,141 163,140.3 161.5,139.5 161.2,139.4 161.1,139.4 
		161,139.2 161,139 160.9,137.6 161,137.3 161.1,137.1 161.7,136.8 161.9,136.6 162.4,135.7 162.9,134.9 163.7,134 164.1,133.4 
		164.6,132.4 164.8,130 164.5,124 161.3,109.3 160.4,109.8 159.7,109.9 159.3,109.8 158.7,109.7 158,109.3 157.3,108.8 156.6,108.1 
		156.1,107.7 155.5,107.4 155.2,107.4 155,107.4 152,109.3 150.9,110.4 149.7,111.4 149.5,111.6 148.6,112.8 148.5,112.9 
		147.8,114.8 147.5,115.1 147.1,115 144.1,111.2 143.7,110.7 143.2,109.2 142.9,107 142.5,105.9 142.4,105.6 142,105.3 140.4,104.4 
		139.8,104.4 139.5,104.6 139.1,104.9 138.2,105.1 137.5,104.7 137.3,104.5 137.1,104.1 137,103.6 136.8,102.7 136.3,101.1 
		136.1,100.8 135.9,100.5 135.5,100.3 135.1,100 134.7,99.6 134.5,99.3 134.3,99 134.2,98.6 134,96.9 133.5,96 132.3,90 132.6,89.1 
		132.6,88.9 132.5,88.6 132.2,88.5 132,88.4 131,88.3 128.4,86.8 128,86.7 126.8,86.5 126,86.3 125.3,86.1 125,85.8 124.9,85.6 
		124.9,85.4 125,85.2 125.9,83.8 126.5,82.3 127.7,81.1 128.4,80.4 129.2,79.7 129.4,79.3 129.5,79.1 129.6,78.7 129.8,78.2 
		130.4,77 131.3,75.9 132.5,74.6 135,72.1 135.9,70.5 136.3,69.5 136.5,68.9 136.5,68.4 136.5,66.1 136.5,65.6 137.1,63.3 137.1,63 
		137.1,62.5 137.1,62.1 137,61.8 136.9,61.6 136.9,61.4 136.6,61.1 136.5,61 136.3,60.9 134.8,60.1 132.5,58.2 131.2,56.9 
		130.7,56.6 129.9,56.2 129,55.9 128.3,55.8 127.5,55.6 127,55.2 126.4,54.4 126.2,53.9 126.2,53.5 126.3,52.8 126.9,50.9 
		127.7,49.2 128,48.1 128.2,47.3 128.2,46.6 128.2,45.9 128.5,45.3 129,44.7 129.4,44.3 129.6,44 129.9,43.2 128.4,42.3 127.5,41.3 
		126.7,40.2 126.2,39.8 125.6,39.7 125,39.6 124.4,39.7 123.8,39.9 123.4,40.2 123.1,40.6 122.5,41.9 121.5,42.4 121.3,42.5 
		121.1,42.8 120.7,43.6 119.1,47.6 118.9,47.9 118.7,48.1 118.4,48.4 118.1,48.5 117.8,48.5 117.6,48.5 117.4,48.4 117.2,48.3 
		116.9,48 115.8,46.9 113.5,44.3 112.8,43.4 111.5,40.1 110.6,39.2 110.3,38.7 109.8,36.9 106.9,33.3 104,29 103.3,27.5 102.8,25.7 
		102.8,24.1 102.8,23.1 102.9,22.7 103,22.5 103.1,22.2 103.4,22 103.7,21.7 103.9,21.6 104.5,21.2 105.1,20.5 105.3,20.4 
		105.5,20.3 105.7,20.2 108,20.2 109.4,20 110.9,20.1 111.3,20 111.5,20 111.8,19.8 113.6,18.5 114.1,17.9 114.2,17.7 114.3,17.4 
		114.3,17.2 114.2,16.8 114.2,16.4 115.1,13.3 115.1,12.9 115.1,12.6 115.1,12.4 114.9,12 114.5,11.4 113.9,10.6 113.4,9.8 
		113.3,9.7 113.2,9.3 113.2,9.1 112.8,6.1 112.7,5.7 112.4,5 112.2,4.7 112.1,4.5 111.9,4.4 111.6,4.3 110.4,4.3 67.6,4.8 43.4,0.1 
		43,0 42.3,0.9 41,5.2 39.1,10.9 39,12.4 39.1,13.1 39.3,13.8 40.6,15.4 41,16.2 40.5,16.8 40.8,17.7 40.8,18.7 40.8,19.8 
		41.4,20.8 42.1,21.5 42.6,22.4 43,23.4 43.4,26.7 45.9,36.8 46.2,38.8 45.8,40.2 41.3,43.8 40.2,45.1 39.8,46.5 39.6,48.1 
		39.5,51.2 39.8,53.3 40.4,54.9 41.3,56.5 42.6,58.1 49.3,67.7 49.8,68.8 50,69.9 49.8,70.6 49.2,72.1 49,72.8 48.9,73.3 49,74.3 
		48.9,74.6 48.7,74.7 47.7,74.6 47.3,74.6 45.7,75.3 44.9,75.5 43.1,75.6 42.3,75.9 41.5,76.4 40.9,77.1 40.5,78 40.2,78.8 
		39.9,79.3 39,79.5 37.6,78.9 36.4,77.9 35.1,77.1 33.5,77 32.2,77.3 31.7,77.6 31.2,78.3 29.7,80.8 29.4,81.7 29.4,82.4 29.4,84 
		29.3,84.6 27.6,88.6 27.2,89.2 26.6,89.7 25.4,90.3 24.8,90.8 24.5,91.3 24.4,91.8 24.4,92.3 24.6,92.8 24.5,93.8 24.1,94.9 
		23.2,96.8 22.9,97.3 22.1,98 21.9,98.5 21.8,99.1 22,99.6 22.3,100.1 22.4,100.7 22.3,101 21.3,101.5 20.9,101.8 20.7,102.2 
		20.4,103.8 20.9,103.8 30.5,104.6 32.9,104 33.6,103.6 33.9,103.5 36.4,103.2 37.3,103 37.7,102.9 38,103 38.2,103.1 39,103.5 
		39.3,103.7 39.9,103.8 40.2,103.8 40.5,103.8 41,103.5 41.2,103.4 41.5,103.2 41.7,102.9 42.2,102.5 42.6,102.4 42.9,102.3 
		44.6,102.5 45,102.6 45.2,102.7 45.3,102.9 45.4,103.1 45.5,103.3 45.5,103.5 45.5,103.7 45.4,104.2 44.8,106.2 44.8,106.4 
		44.7,106.9 44.8,107.4 44.9,107.8 44.9,107.9 45.3,108.6 45.4,108.8 45.4,109 45.4,109.3 45.4,109.5 44.9,111.6 44.8,112.1 
		44.8,112.3 44.8,112.5 44.9,112.9 45,112.9 45,113 45.5,113.3 45.8,113.4 46,113.5 46.5,113.4 47.1,113.4 47.7,113.5 48,113.6 
		48.3,113.7 48.6,113.9 49,114.2 49.5,114.8 49.8,115.5 50.2,115.9 50.5,116.2 50.8,116.4 51.1,116.5 51.4,116.5 52.5,116.4 
		53.4,116.6 55,117 55.3,117.2 55.5,117.3 55.8,117.6 56.1,118 56.2,118.2 56.6,118.7 57.1,119 57.4,119.1 57.7,119.2 58.1,119.1 
		58.8,118.8 59.5,118.4 60.1,118.2 60.3,118.1 60.8,118.1 61.2,118.1 61.8,117.8 62,117.7 62.5,117.7 62.9,117.8 63.1,117.9 
		63.2,118.1 63.2,118.4 63.1,119.1 63.1,119.4 63.2,120 63.4,121.6 63.7,123 63.8,123.1 65.5,125.6 66,126.2 66.2,126.5 66.3,126.6 
		66.4,126.8 66.5,127.5 66.6,127.9 66.9,128.4 67.5,128.3 68.4,127.5 69,127.2 71.2,126.6 87,127.4 89.6,127.3 92.3,126.9 
		92.7,126.7 93.1,126.5 93.3,126.2 94,125.5 94.1,125.2 94.2,125 94.3,124.8 94.4,124.7 94.5,124.5 94.7,124.4 95.2,124.2 96,123.7 
		97.1,123.7 104.1,126.3 111,129.2 112.2,130.8 113.4,131.8 113.7,132.3 113.9,132.7 114.1,132.9 114.2,133.1 114.5,134.5 
		115,137.7 115.3,138.4 116.5,140.2 117.7,141.3 118.3,141.8 118.5,142 119.3,142.3 119.8,142.7 119.9,142.9 119.9,143.2 
		119.9,143.5 119.8,143.7 119.1,144.8 118.8,145.2 118.6,145.4 118.4,145.9 118.3,146.3 118.3,146.5 118.4,146.7 118.9,147.5 
		119.2,147.8 119.9,148.3 125.9,151.1 127.5,152.2 131.8,156.7 132.5,157 132.9,157.2 139.2,163.6 140.3,165.6 140.5,166.2 
		140.6,166.6 140.6,168.6 140.6,169.3 140.6,169.8 141,172.3 141.4,173.9 143.7,179.3 145.8,184 147.1,187.8 153.1,200 160.7,197.8 
		162.4,196.8 165.5,193.6 169.4,189.2 169.7,188.6 169.8,187.8 168.7,178.3 	"/>
	<polygon id="Tucumán" class="st0" points="170.2,38.5 173.3,28.2 173.5,25.5 173.2,18.6 154.9,19 153.5,18.9 148.8,17.7 
		146.2,18.2 141.7,19.7 140.9,20.2 139.1,21.9 137.6,23 137.2,23.2 136.3,23.6 135.2,23.8 134.5,23.8 133.4,23.8 131.6,23.3 
		128.6,21.8 127.2,20.6 125.5,20.2 124.7,20.4 123.3,20.7 106.7,14 105.4,13.1 104.7,11.9 104.2,10.6 103.5,8.1 102.3,5.7 102,5.3 
		101.7,4.9 101.4,4.6 100.5,4.6 99.3,4.9 96.8,6 92.5,8.5 92,8.8 91.4,8.9 90.3,8.9 81.8,6.9 80.6,6.9 78.6,7.1 74.3,5.9 73.8,5.7 
		72,4.7 71.5,4.5 70.9,4.5 70.3,4.8 69.9,5.2 69.6,5.7 69.4,6.6 69.3,8 69.3,12 69.1,13.8 68.4,15.7 68,17.9 67.9,19.2 68.2,22.4 
		68.1,23 68,23.6 67.9,24.2 67.6,24.8 67.2,25.4 66.9,25.9 66.2,26.2 65.7,26.4 62.8,26.3 37.2,21.8 36.5,24 35.9,24.6 34.9,25.6 
		33.7,27 33.1,28.4 33,30.3 33,31.9 32.6,33.9 31.8,36.6 29.8,40.7 28.3,45.4 28.1,47 28.3,48.1 28.6,49.4 30,51.3 31.4,52.3 
		33.3,52.8 35,53 37.2,53.7 39.2,54.6 40.5,55.5 43.4,58.5 49.1,63.2 52.9,65 53.3,65.3 53.6,65.7 54.2,66.4 54.4,66.9 54.6,67.4 
		54.7,68.1 54.8,69 54.8,70.2 54.7,71.1 53.4,76.7 53.3,77.9 53.4,83.5 53.3,84.6 52.9,86.2 51.9,88.5 49.6,92.4 43.5,98.5 
		40.6,101.7 38.5,104.4 36.9,107.2 36.6,108.5 36.2,109.6 36,110.1 35.4,111 33.6,112.8 31.8,114.4 29,117.5 27.5,121 25.2,124.4 
		25,124.9 24.9,125.4 25.3,126 26,126.5 27.7,127.3 29.6,127.7 32.6,128 33.6,128.4 39.8,132.1 42.3,132.4 42.9,132.5 43.4,132.7 
		43.8,133.4 43.8,133.9 43,136.3 46,150.7 47.1,153.1 47.7,157.2 48,158.2 48.3,158.8 48.9,159.5 50,160.7 50.7,161.2 51.9,161.8 
		52.4,162.4 52.9,163.4 54.1,167.3 54.4,169.4 54.8,170.6 55.3,171.5 55.7,172 57.4,173.1 59.6,172.5 60.7,171.9 61.4,171.4 
		62.8,171.4 66.7,173.4 67.6,174.3 68,174.9 68.8,177.8 69.7,183 71,186.8 71.8,188 79.1,197.1 80.2,197.5 80.8,196.6 82.7,192.2 
		82.8,191.9 85,188.9 85.5,188.3 88.4,186 91.1,183.3 98.4,178.7 98.9,178.6 99.7,178.7 101,179.5 102.3,180.4 104.1,182.1 
		105.7,183.3 107.6,184.2 108.9,184.6 109.9,184.7 111.6,184.4 114,183.3 115.2,182.5 116.2,182.2 116.7,182.1 117.3,182.2 
		118.8,182.5 119.7,182.5 120.7,182.2 121.6,181.8 122.3,181.3 122.6,181 123.4,179.4 125.9,171.6 126.6,170.7 127.2,170.3 
		128.3,170.5 128.6,170.4 128.7,170.4 128.6,169 126.2,163.8 122.7,155.2 122.6,153 123.6,150.3 124,150 124.6,149.7 126.5,149.9 
		127,149.9 127.5,149.7 128,149.5 128.3,149.3 129.1,148.7 129.5,148.4 130.1,147.6 131.1,145.8 131.3,145.3 131.4,145 131.3,144.5 
		131,144.2 129.4,143.1 127.7,142.4 126.1,142.1 124.8,141.7 123.4,140.8 123.1,140.4 128.5,134.1 129.7,133.1 133.8,128 135,126.9 
		135.8,126.3 137.9,125.9 138.5,125.4 139.1,124.5 141,118.8 141.4,118.2 142.9,116 145.6,109.3 146.6,105.1 147.8,99.5 148.1,98.8 
		148.6,97.8 149.4,96.8 149.9,96.3 150.5,95.9 150.9,95.8 152.2,93.1 155.2,81.1 156.4,76.6 156.9,75.3 157.6,75 158.3,74.9 
		159.5,74.9 160.5,74.7 161,74.6 161.5,74 161.9,73 164.4,63.9 165,62.8 166.1,62.6 171.6,63.5 172,62.9 172.2,61.2 172.1,57.6 
		171.4,50.4 170,40.5 170,39.6 	"/>
	<polygon id="Salta" class="st0" points="198.8,100.1 198.9,80.5 198.8,43.2 198.5,43.2 197.9,43 195.7,41.4 195.2,40.9 195,40.4 
		194.7,40.1 193.4,39.7 193,39.6 192.2,38.6 191.7,38.1 191,37.9 190.6,37.9 190.2,37.7 189.8,37.5 189.6,37.2 189.6,36.9 
		189.8,36.6 189.9,36.3 189.8,35.8 190,35.8 189.8,35.5 189.6,35.3 189.3,35.2 189,35.1 188.7,35 188.6,34.8 188.6,34.5 188.5,34.1 
		188.1,33.7 186.7,32.8 185.2,32 184.8,31.6 184.5,31 184.5,29.9 184.3,29.5 184.4,29.2 184.4,28.8 184.2,27.5 184.1,27.2 
		183.7,27.1 182.3,26.9 177.6,27.1 177.6,27.1 167.6,27.1 157.7,27 156.5,27.2 155.9,27.5 154.5,28.8 154.1,28.6 152.8,27.5 
		152.2,27.2 149.2,27 148.4,27.1 147.9,27.3 147.8,27.5 147.8,27.7 147.5,28.4 147.4,29.1 147.3,29.4 147,29.6 146.8,29.7 
		146.6,29.8 146.4,29.9 146.1,30.5 145.6,32.4 144.6,34.9 144.4,35.3 143.8,35.6 143.5,35.9 141.2,42.1 140.4,43.2 138.8,44.8 
		138.3,45.6 136.9,50.7 136.9,53.2 136.6,53.9 135.9,56.5 136,57 135.4,56.7 135.2,55.1 134.9,54.6 135.1,53.8 135,52.8 134.6,52.1 
		133.9,51.8 133.5,51.5 132.7,49.6 132.4,49.4 132.1,49.3 131.9,49.1 131.8,48.6 131.8,48.2 132,47.5 132,47.2 132.1,46.8 
		132.4,46.5 132.6,46.1 132.7,45.6 130.9,43.9 130.5,43.3 130.3,42.5 130.2,42.3 129.6,41.9 129.4,41.6 129.4,41.3 129.7,40.6 
		129.6,40.3 129.2,39.9 128.6,39.4 128.1,38.8 128.5,38 128.9,37.5 129.1,37.1 129.1,36.5 128.8,35.8 128.5,35.4 127.7,34.4 
		127.4,34.1 126.7,34 126,33.6 125.4,33.2 124.8,33.1 124.5,33 124.2,33 123.7,33.3 123.4,33.3 122.1,33 119.9,31.8 113.9,30.4 
		108.6,30.4 108.5,31.2 108.4,31.6 107.9,32.2 107.6,32.8 107.4,33.4 107.1,34.7 107,35.8 107,37.7 107,38 106.9,38.2 106.4,39.1 
		106.3,39.2 105.9,39.8 105,41.9 104.9,42.4 104.7,42.9 104,44.3 103.9,44.6 103.8,44.9 103.9,45.7 103.6,47.2 103.8,47.5 
		103.9,47.5 104.2,47.6 104.7,47.4 105,47.6 106.1,48.6 106.2,48.9 105.7,49.9 105.5,50.5 105.5,51 105.5,51.8 105.5,52.1 
		105.6,52.6 105.7,52.7 106.1,56 106.2,56.2 106.4,56.6 106.5,56.9 107.2,59.2 107.3,59.5 107.4,59.7 107.8,60.2 108.5,60.7 
		108.8,60.8 109.2,60.9 111.9,61 112.8,61.1 113,61.2 113.3,61.4 113.8,62 114,62.3 114.2,62.5 114.3,62.9 114.3,63.1 114.4,63.9 
		113.9,67 113.4,69.1 113.3,69.6 113.2,70 113.3,70.2 113.3,70.4 113.4,70.5 113.5,70.7 113.6,70.8 113.8,70.9 114.5,71.1 
		114.7,71.2 115.7,71.6 116.1,72 116.6,72.9 117,74 118.1,76.2 118.2,76.5 118.2,76.7 118.3,77.9 118.4,78.2 118.6,78.4 118.7,78.5 
		119.1,78.5 119.5,78.5 120.4,78.8 121.1,78.7 121.2,78.6 121.4,78.5 121.5,78.4 121.7,78.3 122.2,77.7 122.6,77.5 122.8,77.4 
		124.2,77.2 124.8,77 125.1,77 125.4,77 125.6,77.3 125.9,77.6 126.1,77.7 126.2,77.8 126.4,77.9 127.6,78.3 128.7,78.8 129.1,79.2 
		129.8,79.8 129.9,79.9 130.4,80.7 131.1,81.5 131.2,81.6 131.3,81.8 131.6,82.1 132.4,82.7 133.1,82.2 133.3,81.8 133.6,80.2 
		133.8,80 134.4,79.3 134.6,78.9 135,78.8 135.3,78.8 139.2,78.8 139.8,78.9 140.3,79.1 140.4,79.5 140.5,80 141.2,102.3 
		141.1,102.7 140.6,104.2 139.5,106.3 137.7,108.9 136.8,109.8 136.4,110.2 136.3,110.3 136,110.4 135.8,110.4 135.6,110.5 
		134.9,110.4 134.6,110.5 134.4,110.5 134.2,110.6 133.6,110.6 133.4,110.7 133.1,110.8 132.9,110.9 132.8,111.1 132.3,111.9 
		132.1,112.1 131.9,112.2 130.3,112.6 128.6,114.2 128.1,114.7 127.8,115.4 127.5,116.2 127.3,116.7 127.1,116.9 127,117.1 
		126.8,117.2 126.7,117.2 126.4,117.2 120.4,111.8 120,111.7 119.6,112.3 119.1,113 117.7,116.5 117.6,116.6 117.4,116.7 
		117.2,116.7 117,116.7 116.6,116.7 113.6,115.5 112.6,114.9 109.9,112.7 109.8,112.5 109.7,112.4 109.6,112 109.5,111.8 
		109.4,111.7 109.2,111.6 109.1,111.7 107.8,112.6 107,113 106.6,113.1 105.8,113.3 104.6,113 103.1,112.3 102.8,112.2 102.6,112.1 
		101.8,112.1 101,111.9 100.7,111.6 100,110.8 99.7,110.6 99.4,110.5 99.2,110.5 99,110.5 98.9,110.5 98.8,110.5 98.7,110.5 
		98.4,110.8 98.2,110.9 97.9,111 97.5,110.9 96.5,110.3 96.2,110.1 96,109.9 95.6,109.3 95.1,108.1 91.9,103.8 90.8,102 90.5,101.3 
		90.7,99.8 90.6,98.6 89.9,98 88.4,97.3 88.2,97.2 87.9,96.8 86.7,95.6 86.3,95.4 86,95.2 85.8,95.2 85.6,95.2 85.4,95.2 85.3,95.3 
		85.2,95.4 85.1,95.6 84.9,95.7 84.7,95.8 84.4,95.7 84.2,95.7 84.1,95.5 83.8,95.1 83.5,94.7 82.9,93.9 82.8,93.4 82.9,93.2 
		83.1,92.8 83.1,92.5 83.1,92.4 83,92.2 82.9,92.2 82.9,92.1 82.7,91.8 82.7,91.3 82.7,91.2 82.5,91.2 82.4,91.1 82.2,91 82.1,90.8 
		82.1,90.6 82.2,88.2 82.3,87.9 82.3,87.7 82.7,87 82.8,86.9 83.2,86.4 83.3,86.2 83.3,86 83,85.2 82.9,85.1 82.9,85 83.3,84.2 
		83.1,82.6 83.1,81.9 83.4,80.7 83.4,80.3 83.3,80.1 83.2,79.8 83,79.5 82,78.6 77.5,75.9 77.4,75.8 77.2,75.7 77,75.7 76.6,75.8 
		76.2,75.8 75.7,75.6 74.8,74.8 73.9,74.8 72.5,74.2 72.1,74.1 71.8,74 71.5,74.1 71.4,74.2 71.2,74.3 71,74.6 71,74.8 70.1,78.4 
		70,79.2 70.1,80.2 70.2,80.6 70.9,82.5 71,83 72,85.4 72.2,86.3 72.4,88.3 72.2,91.4 71.8,95 71.9,96.4 71.8,97.3 71.7,97.8 
		71.4,98.1 71.2,98.6 71,99.3 70.9,100.3 70.6,100.8 70.4,101 69.9,101.1 69.7,101.3 68,103.6 66.9,104.1 64.9,104.2 63.8,104 
		62.5,103.4 61.5,102.8 60.8,102.2 59.7,100.5 58.6,99.3 58.3,99.1 55.8,98 55.3,97.6 55,97.4 54.5,96.5 53.4,95.5 53.3,95.3 
		53.2,95.2 53.1,94.6 52.9,94.3 52.8,94.2 52.5,94.1 52.3,94.1 52,94.1 51.8,94 51.6,93.9 51.5,93.6 51.3,92.9 51.3,92.9 49.9,91.5 
		49,90.4 48.7,90.1 48.5,90 48.3,89.9 47.9,89.8 47.3,89.7 47,89.6 46.7,89.5 46.5,89.4 46.3,89.2 45.7,88.4 45.5,88.2 45.3,88.1 
		44.5,87.8 44.3,87.7 44.1,87.5 43.3,86.7 43.3,86.6 42.2,90.1 41.2,93.6 40.5,95.9 39.8,96.9 38.2,97.8 36.9,98.3 36.7,98.4 
		36,98.7 35.4,98.9 35.1,99 31.1,100.8 27.2,102.6 23.2,104.4 19.3,106.1 17.7,106.8 16.1,107.5 14.5,108.1 12.9,108.8 11.8,109.3 
		11.3,109.7 11.1,109.9 10.8,110.9 9.6,112.8 9.2,113.2 8.7,113.2 8.1,113.1 7.6,112.9 7,113.3 5.7,116 5.5,117.1 5.3,117.8 
		4.9,117.5 4.3,116.7 3.9,116.8 3.6,117.2 3.5,117.7 3.4,118.2 3.1,119.4 1.5,122.7 1.3,123.4 1.3,124 2,125.9 2.1,126.1 2.4,126.4 
		3.2,126.9 3.4,127 4.1,127.1 4.4,127.2 4.6,127.5 4.8,128 4.8,128 4.7,128.1 4.7,128.3 4.7,128.5 4.9,128.6 5.2,128.9 5.3,129.1 
		5.5,129.3 5.7,129.6 5.7,129.8 5.7,130.1 5.5,131.4 6.3,132.5 7.3,133.4 8,134.3 8,135 7.6,135.5 6.9,135.8 6.3,135.9 5.6,135.9 
		5.1,135.8 4.6,135.8 4,136.1 3.9,136.3 4.2,136.4 25.7,140.6 63.9,140.1 64.9,140.1 65.2,140.2 65.3,140.3 65.5,140.5 65.6,140.7 
		65.9,141.4 66,141.7 66.3,144.4 66.3,144.6 66.5,144.9 66.5,145.1 67,145.7 67.5,146.4 67.9,147 68,147.3 68.1,147.5 68.1,147.8 
		68,148.1 67.3,150.9 67.2,151.2 67.3,151.6 67.3,151.8 67.2,152 67.1,152.3 66.7,152.8 65.1,153.9 64.8,154.1 64.7,154.1 
		64.3,154.2 63,154.1 61.7,154.3 59.6,154.3 59.5,154.4 59.3,154.4 59.2,154.5 58.6,155.1 58,155.6 57.9,155.7 57.6,155.8 
		57.4,156.1 57.3,156.3 57.2,156.5 57.1,156.8 57.1,157.7 57.1,159.2 57.5,160.8 58.2,162.1 60.8,165.9 63.3,169.2 63.8,170.7 
		64,171.2 64.8,172 66,174.9 66.6,175.7 68.7,178.1 69.6,179.1 69.9,179.3 70.1,179.4 70.3,179.4 70.5,179.5 70.7,179.5 71,179.4 
		71.3,179.1 71.4,178.9 71.6,178.7 73,175.1 73.4,174.4 73.6,174.2 73.7,174.1 74.6,173.6 75.2,172.4 75.5,172.1 75.8,171.8 
		76.3,171.6 76.8,171.6 77.4,171.6 77.9,171.8 78.4,172.1 79.1,173.1 79.9,174 81.2,174.7 90.6,176.3 91.6,176.4 91.8,176.3 
		92,176.2 92.2,176 92.3,175.8 92.4,175.6 92.5,175.4 92.5,175.2 92.5,174.9 92.4,173.8 92.5,173.3 92.6,172.5 92.9,171.8 
		92.9,171.1 92.9,169.7 93,169.2 93.1,168.8 93.2,168.7 93.3,168.5 93.5,168.4 93.7,168.4 93.9,168.5 94.6,168.8 94.8,168.9 
		96.3,169.4 97.1,169.3 97.5,169.3 100.6,170 101,170 101.2,170 101.4,169.9 103,169 103.9,168.6 104.3,168.5 104.6,168.5 
		104.8,168.6 104.9,168.7 105,168.8 105.4,169.7 105.7,170.6 105.9,171.1 106.1,171.5 106.6,171.9 112.6,174.3 113.1,174.2 
		113.4,174.1 114,174.3 114.6,174.7 115.7,175.3 116.3,175.4 116.7,175.5 117,175.4 117.4,175.4 117.7,175.2 117.9,175.2 
		118.4,174.8 119,174.1 119.4,174 121,173.4 122,173.2 123.7,173.7 124.2,173.7 130.9,173.5 131.1,172.3 131.1,172.1 132.3,169.9 
		132.5,169.2 132.6,168.9 132.6,167.8 132.6,167.3 132.8,166.7 139.6,151.8 140.2,151 141.4,151.2 147.5,153.2 147.5,153.2 
		148.6,153.5 165.3,153.8 175,141.2 199,109.9 	"/>
	<polygon id="Jujuy" class="st0" points="197.6,123.1 197.4,122 197.1,121.1 196.1,120.8 195,120.7 187,120.5 186.5,120.6 
		185.7,120.9 185.3,121.6 184,123 183.8,123.5 183.1,126.5 182.7,127.4 181.2,128.5 179.6,127.3 179.1,126.7 178.9,126.2 178.7,126 
		177.3,124.4 176.2,122.8 176,122.6 174.7,121.5 173.8,120.6 171.7,119.5 169.3,118.9 168.8,118.7 168.6,118.5 168.3,118.3 
		167.6,117.5 167.1,117.1 166.7,117 166,117 164.8,117.4 162.1,117.7 161.5,117.9 160.9,118.4 159.7,119.5 159.5,119.7 159.2,120 
		158.8,120.3 158.5,120.4 157.2,120.5 155.4,120.1 154.6,119.9 153.9,119.9 153.5,119.8 153.2,119.4 153,118.7 152.9,116.4 
		152.8,116 152.6,115.3 150.3,111 149.6,108.9 148.6,106.9 147.8,106.2 145.8,105.3 145.3,105.2 143.9,104.7 143.6,104.5 
		143.4,104.3 143.2,104 143,103.7 142.9,103.4 142.8,103 142.9,102.2 143.1,101.1 144.2,96.9 145.1,90.8 145,89 144.9,88.7 
		144.7,88 144.4,87.5 144,86.8 143,85.8 142.4,85.3 141.9,85.1 140.1,84.8 134.8,84.7 134,84.6 133.3,84.3 132,83.2 131.1,82.2 
		130.9,81.8 130.6,81.3 129.4,76.7 129.1,76 128.6,75.2 128.5,74.8 127.7,68.3 127.6,68 127.4,67.1 127.3,66.5 127.3,64.8 
		127.4,63.7 127.7,62.7 128.7,60.7 128.5,60.1 126.3,58 125.7,57.7 124.7,57.9 124.1,57.9 123.9,57.8 123.6,57.2 124.1,54.1 
		124,52.6 124.1,52 124.3,51.3 125.8,48.6 126.1,47.6 126.4,46.5 128.2,42.3 128.8,41.2 129,40.9 130.2,39.2 130.3,38.8 130.4,38.2 
		130.4,34.2 130.6,32.1 131.2,29.5 131.6,28.4 132.2,27.1 133,25.9 133.3,25.1 133.4,23.6 116.5,23.8 113.1,23.4 108.7,22.8 
		108.1,22.8 107.8,23.1 107.5,23.4 107.1,23.6 98.2,24.7 96.3,24 94.4,22.7 86.3,13 84.9,12.2 79,11.2 78.7,10.8 78,7.5 76,5.4 
		73.2,4 67.9,2.2 66.7,2.6 63.7,13.9 63.1,20.3 62.8,21.3 62.4,22.1 62.3,22.2 62,22 61.2,22.1 60.7,22.5 60.2,23 59.8,23.7 
		59.6,24.3 58,25.5 49.6,28 42.2,30 41.9,30.4 41.8,30.9 41.6,31.3 41.2,31.4 40.2,31.1 39,30.9 38.2,30.7 37.6,30.6 36.7,31 
		35.2,32.3 34.4,33.6 33.9,35.2 33.2,40.3 32.7,41.9 31.9,42.9 31.8,43.5 32.1,45.5 32.1,46.2 31.4,46.7 24.3,48.9 22.6,49.8 
		21.3,51.2 20.7,52.1 19.8,52.7 18.9,52.9 17.5,52.8 16.4,52.9 16.9,59.3 16.8,60.8 16.1,61.8 11.3,65.6 9.4,67.9 6.1,73.4 
		17.6,85.7 17.2,87.8 16.1,91.5 11.6,106.2 7.2,120.9 2.7,135.6 2.5,136.4 2.5,136.4 4,138.1 4.5,138.4 4.9,138.7 6.6,139.3 
		7,139.5 7.4,139.9 8.6,141.5 8.9,141.8 9.3,142.1 10,142.4 10.5,142.5 11.8,142.6 12.6,142.8 12.9,143 13.4,143.3 13.9,143.8 
		15.7,146 18.5,148.8 18.5,149 18.9,150.2 19.2,150.9 19.5,151.1 19.8,151.3 20.5,151.4 21,151.4 21.5,151.5 21.8,151.7 22.1,152.3 
		22.5,153.5 22.6,153.8 22.8,154.1 24.9,156.2 26.1,157.9 26.5,158.4 27.5,159.1 32.6,161.4 33.2,161.8 35.4,164.2 37.7,167.5 
		39.1,168.8 41.1,170 43.6,171.1 45.9,171.6 49.9,171.4 52.1,170.3 55.4,165.7 55.9,165.4 56.9,165.2 57.3,164.7 57.8,163.8 
		58,161.7 58.5,160.4 59,159.4 59.4,158.7 59.6,157.8 59.8,155.9 59.7,153.1 60.5,145.8 60.8,139.7 60.5,135.7 60,133.8 58,129.1 
		57.8,128 56.4,124.1 56.2,123.4 56.2,121.5 56.3,119.7 58,112.6 58.2,112.3 58.6,111.7 58.8,111.4 59.1,111.2 59.6,111 60.3,111.1 
		61,111.3 64,112.7 65.7,112.7 67.6,114.2 68.6,114.6 69.4,114.6 70.1,114.5 70.4,114.5 70.8,114.6 71.2,114.7 80.2,120.2 82.1,122 
		82.5,122.5 82.8,123.2 82.9,123.7 82.9,124.4 82.4,126.9 82.4,128.2 82.7,131.5 82,133 82,133.2 82.1,133.5 82.8,135.1 82.8,135.4 
		82.6,135.8 81.7,136.9 81.5,137.2 80.8,138.5 80.7,138.9 80.6,139.4 80.3,144.3 80.4,144.7 80.5,145.1 80.9,145.4 81.2,145.4 
		81.5,145.5 81.6,145.8 81.6,146.8 81.9,147.2 82,147.4 82.2,147.6 82.4,147.8 82.4,148.2 82.3,148.7 82,149.4 81.8,149.9 82,150.8 
		83.2,152.5 83.8,153.3 84.3,154.2 84.6,154.4 85,154.6 85.6,154.6 86,154.5 86.3,154.3 86.5,154 86.7,153.7 87,153.5 87.4,153.5 
		87.8,153.5 88.2,153.5 88.9,153.9 89.6,154.4 91.9,156.7 92.5,157.5 93,157.8 96,159.2 97.3,160.3 97.5,162.8 97.3,165.8 
		97.8,167.1 99.9,170.8 106.3,179.4 107.5,181.8 108.2,183 108.7,183.3 109.3,183.8 111.3,184.9 112,185.1 112.6,185 113,184.8 
		113.7,184.3 113.8,184.3 114,184.2 114.3,184.2 114.7,184.2 115.1,184.2 115.7,184.5 116.3,184.9 117.6,186.3 118.3,187 
		119.8,187.5 121.4,187.5 121.8,187.6 122.5,187.8 125.4,189.2 127.9,189.9 129.5,189.5 130.3,189.2 131.9,188.4 134.4,186.6 
		134.8,186.5 135.1,186.6 135.3,186.9 135.5,187.2 135.7,188 135.8,188.3 136,188.5 141.5,193 143.5,194.3 149.6,196.6 150.5,196.7 
		150.9,196.7 151.2,196.6 151.5,196.5 151.8,196.2 154.7,189.3 155.6,187.8 156.5,186.6 157.2,186.9 169.3,197.7 169.8,197.7 
		170.1,197.6 170.4,197.5 170.7,197.1 171,196.6 171.5,195.6 172,194 172.7,192.7 173.7,191.6 177.1,188.4 180.3,187.6 180.6,187.4 
		181,187.1 182,185.4 182.2,185.1 182.6,184.8 183.2,184.6 183.7,184.5 185,184.4 185.3,184.3 185.7,184.2 186.4,184.1 187.7,184.1 
		188.1,184.1 188.5,184 189.1,183.8 189.4,183.6 190.1,182.9 191.9,181 195.6,175.7 197.8,171.7 198.8,168.6 199,167.7 	"/>
	<polygon id="Formosa" class="st0" points="198.8,133.3 198.5,132.7 197.9,132.1 195.4,130.1 195.4,129.6 194.2,126.4 194.2,126.4 
		192.9,125.5 192.1,124.4 190.8,121.5 190.3,120.9 189.1,120.3 188.4,119.8 186.6,117.7 186.1,117.2 185.3,116.9 182,116.9 
		181.5,116.7 181.2,116.2 181.1,115.7 180.8,115.3 180.4,115.3 179.5,115.4 179.1,115.3 176.3,113.9 175.8,113.9 175.3,113.2 
		171.7,110.7 170.9,110.7 170.2,111.2 169.1,112.4 168.6,112.8 168.1,113.1 167.6,113.1 167.1,113 166.9,112.7 166.8,112.4 
		166.5,111.9 163.9,109 162.9,107.6 162.4,107.1 161.5,106.7 152.5,104.9 152.3,104.7 152.2,104.3 152,104.1 151.7,104 151.4,103.8 
		150.8,103.6 148.7,103.5 147.9,103.3 140.1,97.4 138.8,97.1 138.4,96.8 137.5,96 137.2,95.7 136.9,95.7 136.1,95.7 135.3,95.4 
		133.8,94.3 132.8,94 131.7,93.2 130,92.6 129.6,92.3 129.4,92 129.1,91.7 128.5,91.7 128.1,91.5 127.5,90.9 126.2,90.4 125.5,89.5 
		124.7,88 124.3,87.5 122.7,86.1 121.8,85.7 121.6,85.3 121.5,84.9 121.4,84.6 121.1,84.4 120.2,84 119.3,83.5 118.9,83.1 
		118.4,82.6 118.1,82.4 117.4,82.2 116.7,81.8 115.6,81.7 115.2,81.5 114.9,81.3 114.2,80.3 112.7,78.7 98,68.9 97.3,68.7 
		96.4,68.8 94.5,69.5 93.6,69.7 90.5,69.8 87.3,69.3 86,69.4 85.6,69.3 85.2,69.1 84.4,68.4 84,68.1 83.6,68 82.2,68.1 79.6,67.6 
		78.3,66.6 77.6,66.3 76.1,66.2 75.9,66.1 75.2,64.7 75.2,64.4 74.8,64.4 74.1,64 73.6,63.8 73.2,63.8 71.3,63.9 70.9,63.8 70.1,63 
		69.7,62.9 67.3,63 66.1,63 65.3,62.9 64.1,62.2 62.7,61.1 61.3,60.3 59.7,60.8 58.4,59.9 58,59.6 57.4,58.6 57.2,58.3 57.1,57.7 
		56.6,56.8 56,56 54.9,55.3 54.2,54.2 53.8,53.8 54.2,53 54.4,52 54.2,51.1 53.7,50.7 53,50.5 52.4,49.9 51.8,49.3 51.3,48.9 
		51,48.9 50.2,48.9 49.9,48.9 49.6,48.6 48.8,47.8 48.4,47.7 47.6,47.4 47.2,46.8 46.9,46.1 46.6,45.5 43.9,44.4 43,44.3 42.4,44.2 
		42,43.9 41.6,43.4 40.9,43 40.3,42.7 39.5,42.6 38.7,42.5 38.3,42.3 37.9,41.2 37.2,40.8 37.3,40.4 37.5,39.9 37.7,39.5 36.9,39.5 
		36.5,39.4 36.1,39.2 34,37 33.5,36.7 31.5,36.7 31,36.6 30.6,36.4 30,35.7 29.4,35.3 28.8,35 28.4,34.6 28.2,33.8 28.2,33 
		28.1,32.5 27.8,32.1 27.4,31.5 26.9,31.2 26,30.6 25.5,30.2 24.6,28.8 24.3,28.5 19.7,25.7 18.3,24.1 17.7,23.3 17.7,23.1 
		17.6,22.9 17.8,21.8 17.7,21.4 17.3,20.8 16.5,19.1 15.9,18.2 15.1,17.3 14.7,16.8 14.5,16.3 14.3,16.3 13.9,16 13.6,15.7 
		13.5,15.5 13.3,15.4 13.1,15 13,14.6 12.8,14.3 11.7,13.1 11.5,12.6 11.3,12.1 11,11.7 10.5,11.6 10.3,11.3 10.8,10.3 10,9.8 
		10,9.2 10.3,8.3 10.1,7.8 10,7.7 9.7,7.8 9.2,7.6 8.2,7.2 7.7,6.7 7.7,6.2 8.2,5.4 8.5,4.6 8.1,3.8 7.2,2.8 7,2.7 6.7,2.7 6.5,2.7 
		6.4,2.4 6.4,1.9 6.4,1.6 6.3,1.4 6,1.3 5.5,1.1 4.1,0.9 4.2,48.9 4.2,74 13,77.5 16,77.9 16.5,78.1 16.9,78.2 17.1,78.4 17.6,78.8 
		17.8,79.1 17.9,79.3 18,79.4 18.1,79.8 18.3,80.1 18.7,80.4 20.5,81.5 22,82.8 22.3,82.9 22.6,83 23.4,83.1 25,83.6 25.9,83.7 
		26.5,83.7 26.8,83.7 27.1,83.9 28.4,85 29.3,85.6 29.7,86 30,86.3 30.1,86.7 30.3,87.1 31.8,89.9 32,90.2 32.2,90.3 32.4,90.2 
		32.6,90.1 32.8,90 33.3,90.2 33.7,90.3 34,90.3 34.5,90.1 34.7,90.1 35.1,90.2 35.3,90.3 35.5,90.5 35.6,90.6 35.6,90.9 35.6,91.2 
		35.8,91.6 35.9,91.8 36.2,92.3 37.9,93.8 38.4,94.5 40.3,96.3 40.6,96.5 41.5,96.7 41.7,96.7 42.2,96.6 42.5,96.6 42.8,96.6 
		44.2,97.2 45,97.4 45.3,97.4 47.4,97.4 48.1,97.5 49.6,98 50.2,98.4 50.4,98.5 50.6,98.8 51.7,100.5 52,100.7 52.6,100.9 52.8,101 
		52.8,101.3 52.7,101.8 52.8,102.3 53,102.7 54.6,105.2 54.8,105.6 54.8,105.8 54.5,106.1 54.4,106.4 54.4,106.7 54.5,107.2 
		54.6,107.5 54.8,107.8 55.6,108.6 55.9,108.9 56.2,109 56.4,108.9 56.7,108.6 56.9,108.6 57.1,108.7 57.3,108.8 62.9,113.6 
		63.4,113.9 63.9,114.1 64.1,114.2 65.2,115.1 66.5,116.5 66.8,116.7 68,117.2 70.5,118.8 70.8,118.9 72,119.6 72.4,120 72.8,120.5 
		73.1,120.7 73.4,120.9 75,121.3 75.3,121.5 75.6,121.7 76.4,122.3 76.7,122.4 76.9,122.4 77.4,122.2 77.7,122.2 78,122.3 
		78.6,122.5 79,122.8 79.2,123 79.6,123.7 80.2,125 80.5,125.5 81,126.2 81.6,127.2 82.1,127.7 82.8,128.4 83.3,128.8 84.3,129.3 
		84.5,129.5 84.7,129.7 85,130.3 85.5,131.1 85.6,131.4 85.6,131.6 85.3,131.9 85.2,132.1 85.4,132.4 85.6,132.6 87,133.3 
		87.2,133.6 87.2,133.8 87.2,134.2 87.3,134.5 87.4,134.9 87.6,135.1 87.9,135.3 89,135.3 89.4,135.5 89.7,135.6 89.7,135.8 
		89.7,135.8 89.7,135.9 90,136.3 90.1,136.5 90.2,136.8 90.2,137 90.1,137.2 89.9,137.3 89.7,137.5 89.6,137.6 89.7,137.9 90,138.5 
		90.1,138.7 90.2,139 90.3,139.5 90.4,139.8 90.6,140.2 91.4,141.2 91.6,141.5 91.7,141.7 91.7,141.9 91.7,142.2 91.8,142.5 
		91.9,142.9 92.1,143.3 92.4,143.5 92.7,143.5 92.8,143.4 93.2,143.1 93.3,143 93.6,143.1 93.7,143.2 94.1,143.4 94.3,143.5 
		94.5,143.6 94.8,143.6 95.2,143.7 95.5,143.9 96.1,144.3 96.4,144.4 96.7,144.5 97.4,144.6 97.8,144.8 98,144.9 98.2,145.2 
		98.2,145.5 98.3,146 98.5,146.3 98.7,146.5 99,146.5 100.2,146.8 100.7,147 100.9,147.2 101.1,147.4 101.5,148.2 101.7,148.5 
		102,148.6 103.1,149.1 104.4,149.9 104.8,150.2 105,150.4 105.1,150.7 105.1,150.9 105,151.4 105,151.7 105.2,152.2 105.3,152.4 
		105.6,152.5 106.3,152.8 107.1,153.3 108.7,154.9 111.5,158.8 111.7,159 112,159.1 112.7,159.1 113,161.9 112.9,163.1 112.9,163.8 
		112.9,164.1 113.1,164.4 113.3,164.6 113.5,164.7 113.8,164.7 114,164.7 114.4,164.5 114.7,164.5 114.9,164.5 115.8,164.9 
		116.7,165.5 117.1,165.6 117.3,165.6 118.1,165.5 118.4,165.5 118.7,165.5 119.6,165.9 119.7,165.9 120,165.9 120.7,165.9 
		121.1,165.9 121.7,166.1 122.6,166.5 123,166.8 123.3,167.1 123.3,167.3 123.3,167.8 123.4,169.1 123.5,169.4 123.7,169.8 
		124.2,170.5 124.4,170.8 124.4,171.1 124.3,171.3 124.3,171.7 124.5,172.2 125.2,173.2 125.6,173.6 126,173.9 126.2,173.9 
		126.4,173.9 126.6,173.7 126.9,173.7 127.2,173.7 128.2,174.1 128.6,174.2 129.1,174.2 129.3,174.2 129.8,174 130.6,173.6 
		131.3,173.4 131.7,173.2 132,173 132.3,172.6 132.4,172.4 132.6,172.3 132.7,172.1 132.9,172 133.2,171.9 133.5,171.9 133.9,171.9 
		134.1,172 134.4,172.6 134.7,173 135.9,174.1 136.2,174.3 137.7,174.8 139,175.4 140.8,176.1 142,176.9 142.8,177.7 143.8,178.9 
		144.1,179.5 144.6,180.2 145.7,181.3 146.1,181.7 146.6,182 148.3,182.7 148.6,182.9 148.8,183.1 149.2,183.8 150.3,185.1 
		150.6,185.4 150.9,185.6 151.2,185.6 151.7,185.5 152,185.5 152.4,185.7 152.7,185.8 152.9,186 153.4,186.9 154.2,187.9 
		157.3,189.8 157.6,190 157.8,190.2 157.9,190.4 158.1,190.8 158.2,191 158.3,191.5 158.4,191.8 158.6,192.1 159,192.7 161.1,194.4 
		161.4,194.7 161.5,194.9 161.8,196 162,196.2 162.2,196.4 163,196.8 163.5,197 163.7,197.1 164,197 164.7,196.8 164.9,196.8 
		165.2,196.9 165.4,197 165.5,197.2 165.5,197.4 165.5,197.7 165.4,197.8 165.5,198.1 165.6,198.3 166.4,198.7 166.5,198.7 
		167.4,198.6 167.9,198.2 167.7,197.4 166.9,196.8 166.5,196.2 167,195.2 167.6,195 168.4,195.2 169.1,195.3 169.6,194.7 
		169.5,194.4 169.1,193.8 169.1,193.4 169.8,193.2 170.2,193.2 170.6,193.1 170.7,192.9 170.8,189.3 171,188.5 171.2,188 
		171.3,187.9 171.6,188.1 172.8,188.3 173.3,188.3 173.5,188 173.4,187.6 173.2,187.2 173,186.8 173,186.3 173.1,186.1 173.8,185.6 
		174.1,185.3 173.9,185.1 173.5,184.4 173.3,184.1 172.3,183.4 172.1,183.2 172,182.4 172.1,181.7 172.3,181 172.4,180.2 
		172.5,179.8 173.1,179.4 173.3,178.9 172.3,178 172.1,177.4 172.4,176.7 173.8,174.3 174,173.6 174.1,172.9 173.9,171.4 
		173.9,170.7 174.2,170.4 174.9,170.2 175.8,169.9 176.5,169.3 176.5,168.7 175.9,168.3 175.2,167.9 174.7,167.5 174.6,166.7 
		175.1,166.8 175.4,167 175.6,167.3 175.8,167.6 176.1,167.1 176.5,166.2 176.9,164.6 177.3,164.2 179.9,163.2 181.3,162.5 
		186,158.9 186.5,158.2 186.5,157.6 184.6,157 184.9,156.3 186.4,155.2 186.6,154.8 186.8,154.3 186.8,153.8 185.9,153.5 
		185.8,153.2 185.9,152.8 186.7,152.5 187.6,152.1 188.1,151.6 188.4,151.4 188.9,150.8 188.2,149.3 188.1,148.4 188.7,148 
		189.5,147.8 190.2,147.2 190.9,146.5 191.4,145.9 190.9,145.8 190.5,145.6 190.2,145.3 190,145 190.8,143.6 191.3,143.2 
		192.2,142.8 192.7,142.7 193.1,142.8 193.5,142.7 193.9,142.5 194,142.1 194.2,141.1 194.3,140.9 195.5,141.1 196.1,141.1 
		196.4,140.8 196.6,139.7 197.1,139.4 197.6,139.3 198.1,138.8 198.3,138 198.8,134 	"/>
	<polygon id="Chaco" class="st0" points="199.9,132.4 199.1,132 199,131.8 199,131.5 199,131.4 199,131.2 199.1,131 199,130.8 
		198.8,130.6 198.5,130.5 198.2,130.6 197.5,130.8 197.3,130.8 197,130.8 196.6,130.6 195.8,130.1 195.6,130 195.5,129.7 
		195.2,128.7 195.1,128.5 194.8,128.2 192.8,126.6 192.3,126 192.2,125.7 192.1,125.4 192,125 191.9,124.7 191.7,124.4 191.6,124.2 
		191.4,124 191.1,123.7 188.1,121.9 187.3,121 186.8,120.1 186.6,119.9 186.4,119.8 186,119.6 185.7,119.6 185.2,119.7 184.9,119.7 
		184.6,119.5 184.3,119.2 183.3,118 182.8,117.3 182.6,117.1 182.4,116.9 180.8,116.2 180.3,115.9 179.8,115.6 178.8,114.5 
		178.3,113.8 178,113.2 177,112 176.3,111.2 175.1,110.5 173.4,109.9 172.1,109.3 170.7,108.8 170.4,108.5 169.2,107.5 168.9,107.1 
		168.6,106.6 168.4,106.4 168,106.4 167.7,106.4 167.5,106.5 167.3,106.7 167.2,106.8 167,107 166.9,107.1 166.6,107.5 166.3,107.7 
		165.9,107.9 165.2,108.1 164.4,108.5 164,108.6 163.8,108.7 163.3,108.7 162.9,108.6 161.9,108.2 161.6,108.1 161.4,108.2 
		161.2,108.3 161,108.4 160.8,108.3 160.4,108.1 160,107.7 159.4,106.7 159.2,106.2 159.1,105.8 159.3,105.7 159.3,105.4 
		159.1,105.1 158.6,104.4 158.4,104 158.3,103.7 158.2,102.5 158.2,102 158.1,101.8 157.9,101.5 157.5,101.2 156.6,100.8 
		156.1,100.6 155.7,100.6 155,100.6 154.7,100.6 154.6,100.6 153.7,100.3 153.4,100.2 153.1,100.2 152.4,100.3 152.1,100.3 
		151.8,100.2 150.9,99.7 150,99.3 149.8,99.3 149.6,99.3 149.2,99.5 149,99.5 148.7,99.5 148.5,99.4 148.3,99.2 148.1,98.9 
		148.1,98.6 148.1,97.9 148.2,96.8 147.9,94 147.2,94 146.9,94 146.7,93.8 144.1,90 142.5,88.4 141.7,88 141,87.7 140.8,87.5 
		140.6,87.3 140.5,86.9 140.5,86.6 140.5,86.1 140.5,85.9 140.4,85.7 140.2,85.4 139.9,85.2 138.6,84.4 137.5,83.9 137.3,83.7 
		137.1,83.5 136.7,82.8 136.5,82.5 136.3,82.3 135.8,82.2 134.6,81.9 134.4,81.8 134.2,81.6 134,81.4 133.9,80.9 133.8,80.6 
		133.7,80.3 133.5,80.1 133.1,80 132.4,79.9 132.1,79.8 131.8,79.7 131.3,79.3 130.9,79.2 130.6,79.1 130.3,79 130.1,78.9 
		129.9,78.8 129.6,78.6 129.4,78.5 129.2,78.5 129,78.6 128.7,78.9 128.5,79 128.3,78.9 128,78.7 127.7,78.3 127.6,78 127.6,77.7 
		127.6,77.4 127.5,77.2 127.5,77 127.3,76.7 126.5,75.7 126.3,75.3 126.2,75 126.1,74.5 126.1,74.3 126,74.1 125.6,73.5 125.6,73.3 
		125.7,73.1 125.8,73 126,72.8 126.1,72.6 126.1,72.4 126,72.2 125.9,71.9 125.7,71.6 125.6,71.5 125.7,71.4 125.6,71.3 125.4,71.2 
		124.9,71 123.9,71 123.6,70.8 123.5,70.6 123.3,70.2 123.3,69.9 123.2,69.6 123.2,69.3 123,69.1 121.6,68.4 121.5,68.2 121.3,67.9 
		121.4,67.7 121.6,67.4 121.7,67.2 121.6,67 121.1,66.2 120.8,65.6 120.6,65.4 120.4,65.2 119.5,64.7 119,64.3 118.3,63.6 
		117.8,63.1 117.3,62.2 116.8,61.5 116.4,61 115.9,59.8 115.5,59.1 115.3,58.9 114.9,58.6 114.3,58.4 114,58.3 113.7,58.3 
		113.3,58.5 113.1,58.5 112.8,58.4 112,57.8 111.7,57.6 111.4,57.5 109.9,57.1 109.6,56.9 109.3,56.7 108.8,56.2 108.5,55.8 
		107.3,55.1 107.1,55 104.6,53.4 103.5,53 103.2,52.8 102,51.4 100.9,50.6 100.6,50.5 100.2,50.3 99.7,50 94.3,45.3 94.1,45.2 
		93.9,45.1 93.7,45.2 93.4,45.5 93.2,45.5 92.9,45.4 92.6,45.2 91.8,44.4 91.6,44.1 91.5,43.8 91.4,43.3 91.5,43 91.6,42.7 
		91.8,42.4 91.9,42.2 91.7,41.8 90.1,39.5 89.9,39 89.9,38.5 89.9,38 89.9,37.8 89.7,37.7 89.1,37.5 88.8,37.3 87.8,35.6 87.6,35.4 
		87.4,35.2 86.8,34.9 85.3,34.4 84.7,34.3 82.6,34.3 82.4,34.3 81.6,34.1 80.2,33.5 79.9,33.5 79.6,33.5 79.2,33.6 78.9,33.6 
		78.1,33.4 77.8,33.2 76,31.5 75.5,30.8 73.9,29.4 73.5,28.9 73.4,28.7 73.3,28.3 73.3,28 73.2,27.8 73.2,27.6 73,27.4 72.8,27.3 
		72.4,27.2 72.2,27.3 71.7,27.4 71.4,27.4 71.1,27.3 70.5,27.1 70.3,27.2 70.2,27.4 70,27.4 69.8,27.3 69.6,27 68.1,24.3 67.9,24 
		67.8,23.5 67.6,23.2 67.2,22.9 66.3,22.3 65,21.2 64.8,21.1 64.5,21 63.9,21 63,20.9 61.5,20.5 60.7,20.4 60.4,20.3 60.1,20.1 
		58.6,18.9 56.9,17.8 56.5,17.5 56.3,17.2 56.2,16.8 56.1,16.8 56.1,16.6 55.8,16.3 55.3,15.9 55.1,15.8 54.8,15.6 54.2,15.5 
		51.3,15 42.8,11.6 43,23.8 13.2,62.9 1.1,78.5 65.9,78.6 67.1,82.2 67.6,99.8 67.7,104.8 67.6,128.3 67.6,173.5 67.6,181.9 
		105.7,182 133.4,181.9 150.9,181.9 179.8,181.9 180.7,178.2 180.7,177.3 180.6,175.6 180.6,174.8 180.8,174 181.6,171.7 
		181.7,170.9 181.7,169.3 181.4,167.6 181,166 180.3,164.5 179.2,162.6 179,161.9 178.8,161.1 178.8,160.3 178.9,158.7 179.2,158.5 
		183.3,155.7 183.6,155.4 183.7,155.2 186.6,153.3 188,152.1 188.5,151.9 189.6,151.6 190,151.5 190,151.4 190.2,149.2 190.1,148.3 
		189.6,147.5 188.7,146.8 188.1,146.2 187.9,145.6 188.1,144.4 188.7,143.5 189.6,142.9 191.6,142.6 191.8,142.1 191.7,141.4 
		191.7,140.6 191.8,140.3 191.9,139.9 192.1,139.6 192.3,139.3 192.7,139.1 192.7,139.1 192.9,139.2 193,139.6 193,139.7 
		193.1,139.8 193.3,140 193.4,140 193.7,140.1 193.8,139.9 193.9,139.2 193.9,138.8 194.1,138.5 194.4,137.9 195.1,137 195.5,136.4 
		194.9,135.9 194.8,135.3 195.1,134.7 195.7,134.3 197.5,133.8 198.3,133.5 198.7,132.9 199.1,132.5 200,132.4 	"/>
	<polygon id="Misiones" class="st0" points="177.2,60.5 178,58.1 177.6,55.1 176.4,52.7 173.2,48.2 172.3,45.6 171.9,43.2 
		171.1,40.9 169.3,38.9 169.3,38.9 169.3,38.9 167,36.8 166.6,36 166.4,35.1 166.5,34.4 166.7,33.8 166.8,33 166,29 166.3,24.7 
		166.1,23.4 165.5,22 164.9,21.3 163.7,20.1 163.2,19.3 163.1,18.3 163.3,17.6 163.6,17.1 163.7,16.5 163,13.8 162.2,12.2 
		161.5,11.4 158.9,13 157.6,13.2 157.1,11.3 156.9,9.8 156.5,8.5 155.6,7.4 154.4,6.7 153.5,6.5 153,6.7 152.6,6.9 151.8,7.1 
		150.6,6 150,5.6 149.5,6.2 149.6,6.9 149.7,7.8 149.8,8.6 149.5,9.1 148.9,9.1 148.2,8.6 147.6,7.8 147.3,7.2 147.1,5.7 147.5,4.5 
		148,3.3 148.3,1.9 148.1,1.6 147.7,1.5 147.3,1.6 146.9,1.9 145.2,4 144.5,4.4 143.6,4.5 142.4,4.1 141.7,4 141.2,4.2 142.5,6.6 
		142.8,7.9 141.5,8 140.2,7.6 139.8,7.6 139.3,7.6 138.9,8.8 138.5,9.2 138,8.5 137.3,7 136.6,6.1 135.6,5.8 134.1,6 133.3,6.5 
		132.2,8 131.5,8.1 130.3,7.6 129.8,7.6 129.2,7.9 128.7,8.6 128.6,9.3 128.7,10 128.5,10.7 128,11.3 126.8,12 126.4,12.6 
		126.4,13.4 126.7,14.9 126.4,15.6 125.7,15.9 125.3,15.4 125.1,14.6 125.1,13.9 124.8,12.4 124,11.2 122.8,10.3 121.4,9.7 
		120.1,10.1 119.6,9.4 119.5,8.3 119.2,7.4 118.2,7.1 115.5,7.4 115.4,8.7 116.5,11.1 116.7,12.6 115.7,13.2 113.3,13.1 112.7,13.8 
		112.7,15.8 113.9,19.6 114.1,21.1 114.4,22.1 115.9,23.9 116.4,24.8 116.3,26.5 115.6,27.8 114.9,29 114.5,30.2 115.1,33.5 
		115.1,34.9 114.5,36 114,36.2 112.4,36.3 111.8,36.5 111.4,37.3 111.5,38.1 111.7,38.9 112,41.1 112.7,43.5 112.7,45.1 111.3,49.9 
		111.6,51 112.8,52.5 113,53.4 112.6,54.3 111.8,55.4 111.3,56.3 111.2,56.5 111.2,56.9 111.3,58.3 111.3,61.7 110.3,64 110.2,64.4 
		110,64.8 109.4,69.4 109.1,70.6 108.5,71.6 106.4,73.9 104.6,75.5 103.6,76.7 102.9,78 103,79.1 103.3,80.1 103.6,81.5 103.5,83.2 
		103.3,85 102.7,86.7 101.8,87.9 101.1,88.2 100.7,88.1 100.4,87.7 99.9,87.4 97,87.4 95.4,87.8 94.3,88.9 93.6,90.3 92.7,93.8 
		92.2,95.1 91.5,96.2 90.6,97.3 89.5,97.8 86.2,98.1 84.9,98.6 80.6,103 80.1,104.3 81,107.2 80.8,108.8 79.7,109.7 78.2,110 
		75.6,109.8 74.5,109.5 73.3,108.9 71.9,108.3 70.3,108.3 67,110.1 63.9,110.5 62.6,110.9 61.4,111.7 60.3,112.9 59.5,114.3 
		59.1,115.8 58.9,119.3 58.2,120.5 56.6,120.6 54.8,120.4 53.4,120.6 52.7,121.8 52.4,123.3 52,124.7 50.9,125.2 49.1,125.7 
		49.1,126.8 50.7,129.9 51,130.8 51.1,131.6 51,132.3 50.1,133.9 50.1,134.4 50.3,135 50.3,136 49.6,137.7 48.5,139 47.1,139.8 
		45.5,140.1 43.6,141.5 41.2,144.4 38.7,146.4 34.7,144.1 32.9,143.6 32.1,143.2 31.5,142.4 30.5,139.6 29.5,138.2 28.2,137.7 
		26.7,137.7 25,138 24.7,138 24.6,138 22.9,139.4 22.5,139.9 22.4,140.1 21.5,142.6 21.3,143.5 21.2,144.4 21.2,146.2 21.3,146.9 
		30.9,166.8 31.8,169.6 32.3,172 32.8,177.6 33.2,181.1 33.6,182 34.2,182.9 36.2,185.1 36.9,186.1 37.5,187.2 37.8,188.1 
		37.8,188.2 38,189.6 38.1,190.3 38.5,191.2 39,192 39.9,193.1 42,195 47.3,198.8 47.5,199 47.5,199.1 47.9,197.9 48.7,197 
		50.3,197.3 50.5,197.8 50.4,198.4 50.6,199 51.4,199.3 52.1,199.1 52.4,198.7 52.5,198.1 52.8,197.5 53.2,197.2 54,196.5 
		54.3,196.2 55,194.5 55.3,194.1 56.2,193.7 56.6,194 56.9,194.4 57.3,194.7 58,194.6 59.6,194.1 60,193.5 63,190 63.4,189.2 
		63.6,188.8 63.5,187.2 63.6,186.5 63.9,186.1 64.4,186 65.1,185.9 66.5,185.4 66.8,184.1 67,182.8 68,181.8 68.9,181.7 70.3,182.2 
		71,182.3 71.6,182.1 74,180.2 74.8,178.9 75.8,177.7 77.1,177.1 78.2,177.5 79.7,178.9 81,179.2 81.5,177.1 81.7,176.6 82.3,176.4 
		83.8,176.4 84.4,176.1 85.9,176.9 87,176.9 87.2,176.1 86.3,174.6 84.2,172.7 83.5,171.5 84.7,170.9 86,171.2 87.1,171.8 
		88.3,172.2 89.9,172 93.4,168.9 94.7,168.4 95.1,167.6 95.5,165.9 95.8,162.7 95.7,159.9 96.3,159.6 97.9,159.6 99.3,159 
		99.8,157.4 100,155.5 100.4,154 101,153.3 101.9,152.6 102.8,152.3 103.1,153.1 103,153.5 102.8,153.9 102.7,154.3 102.9,154.4 
		103,154.5 103.5,155.1 103.6,155.2 104,155.4 106.8,154.4 107.4,154.4 108.9,154.6 109.5,154.4 110.2,154.1 110.4,153.7 
		110.5,153.1 110.5,152.1 110.7,151.3 111.1,150.9 111.6,150.8 111.8,151.1 112.1,152.5 112.9,152.6 113.8,151.7 114.5,150.3 
		114.9,149 115.2,148.2 115.7,147.5 116.3,147 116.6,147 117,147.2 117.5,147.3 117.7,147.6 118.4,148.9 118.6,149.3 119.3,149.6 
		120,149.6 124.3,148.4 125.6,147.5 125.7,146.5 124.6,144.8 124.8,144 125.9,143.8 128.6,143.6 129.6,143.9 130.3,144.8 
		130.5,146.5 130.8,147.2 131.3,147.1 131.9,146.6 132.3,145.8 132.4,145.1 132.3,142.7 133.3,143.5 134.1,144.5 135.1,145.3 
		136.4,145.2 136.7,144.9 137.2,144.3 137.6,143.6 137.8,142.9 138.1,142.2 138.8,142 139.6,141.9 140.1,141.6 140.2,141 
		140.1,139.5 140.3,138.8 140.7,138.4 141,137.8 142.9,132.7 143.7,131.4 144.5,131.9 145.1,132.4 145,134.1 146.9,134.8 
		149.4,134.5 154.3,129 154.7,127.7 155.1,127.2 155.7,127.2 156,127.4 156.2,127.6 156.7,127.8 158,127.5 158.1,126.7 157.7,125.7 
		157.9,124.7 158.7,124.2 159.6,124.8 160.4,125.6 161.5,125.7 162.2,125 162.7,122.7 163.3,122.1 164.2,122.6 164.9,123.7 
		165.5,124.9 166,125.4 166.8,124.9 167.5,123.6 167.5,123 166.9,122.3 166.9,121.7 167.2,121.3 168.1,120.7 168.4,120.2 
		168.6,119.2 168.4,117.1 168.7,116.1 169.1,115.8 170.1,115.7 170.6,115.4 170.9,115 173.8,108.7 174.6,106 174.7,103.7 
		173.9,99.3 173.2,96.6 172.9,96.4 172.1,96.4 171.9,96.3 171.8,95.5 172.3,94.5 172.2,93.7 171.9,93.5 171.4,93.2 170.8,92.8 
		170.5,91.9 170.7,91.1 171.2,90.9 171.9,90.8 172.4,90.3 172.8,89 172.9,87.6 172.6,84.8 172.6,83.4 173.5,80.8 173.6,79.5 
		173.6,79.8 173.3,79.3 173.1,78.5 172.9,77.8 173.1,77.3 173.6,76.8 174.6,76 174.6,75.9 174.6,73.7 173.8,66.7 174.4,64.5 	"/>
	<polygon id="Corrientes" class="st0" points="199,51.3 198.8,51.1 195,48.4 193.4,47 192.8,46.2 192.4,45.6 192.1,45 192,44.4 
		191.9,43.4 191.9,43.3 191.7,42.7 191.3,41.8 190.7,41.1 189.2,39.5 188.8,38.9 188.5,38.2 188.3,35.6 187.9,31.6 187.5,29.8 
		186.8,27.7 179.8,13.2 179.7,12.6 179.7,11.3 179.8,10.6 179.9,10 180.6,8.2 180.7,8 181,7.7 182.3,6.6 182.3,6.6 181.4,6.6 
		180.3,6.4 180.3,6.4 177,5.1 177,5.1 175.8,4.9 174.6,4.8 173.3,5.5 172.4,6.2 170.6,8.3 169.5,8.8 168.1,9.1 167,9.8 166.7,11 
		166.9,12.5 166.7,13.7 166.2,14.8 165.2,15.9 164.3,17.2 163.6,18.9 162.7,20.3 161.2,20.6 161.1,20.6 159.6,20 158.1,18.8 
		156.9,17.3 156,15.8 154,13.4 154,13.4 150.8,12.9 149.5,13.2 147.3,13.9 144.9,15.9 143.1,16.2 143,16.2 141.3,15.1 138.3,12.1 
		136.6,11.4 136.6,11.4 134.8,11.6 133,12.3 128.2,15 126.6,15.3 124.7,15.2 124.3,15.2 123.1,15.1 123.1,15.1 122.6,15 122.1,14.7 
		120.8,13.6 120.4,13.3 120.3,13.3 118.1,12.7 117.7,12.6 117.1,12.3 116.8,11.9 116,11.2 115.6,10.9 114.5,10.6 114.3,10.5 
		113.1,10.5 108.1,11.2 106.9,11.1 106.6,11 105.8,10.7 97.9,6.7 97.9,6.7 97.3,6.5 92.4,5.4 92.3,5.4 90.3,4.7 90.2,4.7 88.1,4.2 
		87.4,4.1 85.9,3.5 85.9,3.5 83,2.8 82.1,2.7 82.1,2.7 80.6,2.6 77.6,3.2 76.9,3.2 71.6,2.5 58.3,3.7 53.9,5.6 53.7,5.7 53.2,5.9 
		51.8,6.3 51.2,6.6 49.5,8 45.9,10.3 45.7,10.7 45.4,11 40.3,14.5 40,14.7 39.9,16.7 39.9,17.6 40.1,18.6 40.4,19.5 41.8,21.9 
		42.5,23.8 43.1,25.7 43.4,27.8 43.5,29.8 43.3,30.8 42.3,33.6 42.1,34.6 42,35.6 42.2,37.7 42.2,38.7 41,43.3 40.4,45.8 39.6,47.3 
		38.3,48.6 36.9,49.6 35.3,50 33.4,50 32.4,50.1 31.5,50.5 30.9,51.2 30.5,52.1 30.2,53 30,54 30,55 30.4,57 30.5,58 30,61.2 
		30.2,62.2 31.1,64.6 31.2,65.6 30,72.8 30.3,77 30.2,78.1 30,79.1 29.6,80.1 27.8,83.7 27.5,84.7 27.5,85.6 27.6,86.1 27.6,86.6 
		27.6,87.1 27.1,89 27,90.4 26.7,91.4 25.6,93.3 25.2,94.4 25,94.4 25.1,98.2 24.8,100 24.1,101.5 23.4,102.1 21.1,103.3 
		19.7,104.4 18.4,105.7 17,106.8 12.2,108.6 10.8,109.4 9.5,110.4 8.5,111.7 7.8,113.3 6.1,119.9 5.7,121.8 5.7,133.2 3.9,140.8 
		3.6,141.6 2.1,144.6 1.7,146.2 2.1,148 3.7,150.9 5.3,155.5 5.4,157.6 5.4,158.6 5.1,159.6 3.7,162.3 3.3,163.3 3.2,164.3 
		3.1,166.4 2.9,167.5 2,170.3 1.8,171.4 2.2,173.8 6.2,173.6 6.8,173.5 9.9,172.3 10.2,172.2 10.3,172.2 10.6,172.3 11.8,172.8 
		12.2,172.8 15.5,172 18,172.4 22.7,174.2 26.4,172 27.4,171.2 27.7,170.6 29.6,168.9 32.3,167.2 33.5,166.6 34.2,166.3 35.8,166.5 
		38.5,167.4 40,167.6 40.5,167.6 44.5,166.7 45.4,166.4 46.3,165.9 52.5,163.4 53.9,163.3 54.6,163.4 55.2,163.6 55.8,163.9 
		56.9,164.7 57.1,164.9 57.7,165.1 58.7,165.2 61,165.2 70.5,167.8 72,169 72.4,169.6 72.6,170 73,171.2 73.8,172.6 74.8,174 
		77.6,176.8 79.9,178.5 80.5,179.6 80.7,180.4 81,182.9 81.4,184.2 83.3,188.1 83.8,188.9 89.5,194.8 92.1,196.8 92.5,197 92.5,197 
		92.1,195 91.6,193.7 90.6,191.4 89.8,190.3 88.7,188.1 88.6,185.9 89.2,183.8 90.5,182.2 100.1,173.3 101.2,171.5 101.5,169.3 
		100.8,166.9 100.6,165.7 101,165.1 102.1,165.1 104.2,164.7 105.2,164.4 107.2,162.9 111.9,157 116.1,153.7 116.4,152.9 
		116.9,146.3 117.7,144.4 119.1,143.1 121.2,142.3 123.3,142 125.4,142 126.4,141.6 127.3,140.9 130.9,137 131.2,136.4 131.5,135.8 
		132.9,134.3 133.6,132.4 134.3,131.6 136.2,130 136.6,129.5 136.9,128.7 140.7,125.3 140.9,124.9 141,124.3 141.3,123.6 141.7,123 
		142.5,122.6 142.5,122.1 142.5,121.4 142.6,120.9 142.8,120.4 143.1,120 143.5,119.6 143.9,119.3 145.6,118.4 146.3,118 
		147.1,117.2 147.6,116.3 148.4,113.9 148.9,112.8 148.6,112.1 148.7,111.3 148.9,110.5 149.3,109.7 150.6,107.8 152.2,106.2 
		153.9,104.9 155.6,104 159,103.2 159.8,102.7 160.4,101.7 160.6,100.6 160.6,98.3 161.5,96.1 164.9,94.2 166,92.2 166.3,87.4 
		166.7,86.6 167.7,86.1 170,85.7 171.6,84.6 175.6,79.2 178.6,77.1 179.6,75.8 179.6,73.6 179.5,72.6 179.6,71.6 180.1,70.8 
		181.6,70.4 183,69.7 184.6,69.5 185,69.4 185.4,69.1 185.6,68.8 185.7,68.4 185.7,65.9 185.5,65.4 185.2,64.3 186.1,63.4 
		188.3,62.5 189.8,62.9 191.8,63.1 193.6,63.6 194.3,64.6 194.5,65.7 195,65.9 195.5,65.5 196,64.8 196.4,64 197,61.4 196.4,60 
		195.9,59.4 195.2,59.1 194.5,58.9 192.6,58 192,57.6 191.7,56.2 192.9,55.3 196,54.2 198.1,52.2 198.5,51.9 199,51.4 199,51.3 	"/>
	<polygon id="Entre_Ríos" class="st0" points="158.4,34.6 158.3,33.4 158.2,32.4 157.9,31.1 157.9,31.1 157.5,31 155.2,29.2 
		150.2,24 149.8,23.3 148.1,19.9 147.8,18.8 147.5,16.5 147.3,15.9 146.8,14.9 144.8,13.3 142.3,10.9 141.4,9.6 140.7,8.4 
		140.3,7.4 140.2,7.1 139.8,6.5 138.5,5.4 130.2,3.1 128.2,3.2 127.3,3.1 126.7,2.8 126.5,2.7 125.5,2 125.1,1.7 124.5,1.6 
		123.9,1.5 122.7,1.5 117.2,3.8 116.4,4.2 115.6,4.5 112.1,5.2 111.7,5.2 110.4,5.1 107.9,4.3 106.6,4.1 105.9,4.4 104.8,4.9 
		102.5,6.4 100.8,7.9 100.5,8.4 99.7,9.1 96.4,11 92.3,9.5 90.1,9.2 87.2,9.8 86.9,9.8 85.7,9.4 85.5,9.3 85.4,9.3 85.1,9.4 
		82.4,10.5 81.9,10.6 78.4,10.7 78.7,13 79,13.8 80.2,16.2 80.4,17 80.4,17.8 80.1,19.7 80.1,22.5 79.9,23.4 79,25.8 78.9,26.8 
		78.7,29.6 78.4,30.6 75.9,35.3 73.6,38.4 72.7,40 70.7,42.6 69,45.9 66.4,49.6 63.8,54.4 63.3,55 61.6,56.6 61.1,57.3 59.8,61.5 
		59.6,61.6 59.4,62.2 57.6,64.5 56.8,66 56.6,66.2 56.3,66.4 55.7,66.6 55.4,66.8 55,67 54.8,67.3 54.3,68.1 54.1,68.3 53.6,68.5 
		52.9,69.1 52.6,69.5 52.1,70.4 50.9,71.7 48.8,75 47.5,76.4 46.1,77.6 45.3,78.1 44.4,78.5 43.5,78.8 42.6,79 39.7,79 38.7,78.9 
		37.9,78.9 36.7,79.3 36.4,79.5 36.1,79.8 35.9,80.1 35.8,80.6 35.8,81.1 36,81.4 35.9,81.5 35.8,81.6 35.8,81.6 35.9,82.3 
		35.7,83.1 35.2,84.6 35.1,86.2 34.9,86.7 34.6,87.3 33.4,89 33,90.2 32.8,91.4 33.1,92.7 33.6,93.8 34.8,95.6 35.3,96.6 35.5,97.6 
		35.3,98.6 33.8,101.1 33.5,102 33.4,103 33.8,106 33.7,107 33.6,108.1 32.7,111.1 32.5,112.1 32.4,113.2 32.6,116.2 32.6,117.2 
		32.2,118.4 31,121.6 30.8,122.6 30.9,123.5 31.2,124.3 32.8,126.8 33.3,127.6 33.6,128.6 33.9,133.2 34.2,135.3 34.9,137.2 
		37.1,142 37.9,143.1 38.1,143.3 38.5,143.6 38.7,143.8 38.8,144.2 39.9,147.7 40.2,148.1 42.6,151.2 45.3,153.1 46.1,153.5 
		46.6,153.8 47,153.9 47.5,154.3 48.2,155.2 48.7,156.2 48.9,156.5 49.9,157.4 51.2,158.1 53.3,159.3 58.8,165.2 66.1,170.4 
		66.8,170.6 67.8,170.8 69.9,171.9 70.6,172.4 71.4,173.2 73,175.7 73.6,176.3 79.3,179.5 80.9,179.8 82,179.5 84.4,178.7 
		86.2,179.9 87.8,181.9 89.9,183 93.6,183 93.8,182.9 94.1,182.4 94.2,182.3 94.8,182.2 95.2,182.1 95.5,182.2 95.8,183 95.9,183.7 
		95.9,184.9 96.1,185.5 96.3,185.5 96.5,185.8 96.8,186 97.3,186.2 97.4,186.1 97.6,186 97.9,185.8 98.1,185.8 98.4,186 98.8,186.5 
		98.9,186.5 99,186.7 99.2,187.1 99.4,187.4 99.8,187.6 104.3,187.5 105.4,187.6 106.3,188.1 107,188.7 110.1,190.7 112.4,192.7 
		113.2,193.2 115.3,193.7 116.1,194 120.5,198.1 122.3,199 124.3,199 128.2,197.3 130.5,196.8 130.5,196.8 130.5,196.5 130.7,195.9 
		130.8,195.4 130.3,192.6 130.1,190.2 129.9,189.2 129.5,188.3 127.2,185 126.5,183.3 126.1,181.2 126.1,180.1 126.5,176.3 
		126.9,175.2 127,174.7 126.7,172.4 126.9,170.3 127.3,168 127.9,165.8 128.7,163.9 129.9,162.2 130.8,161.2 131.6,160.8 132,160.3 
		131.8,159.1 131.1,156.9 131.1,155.9 131.6,153.6 131.7,152.5 131.8,152 132,151.5 132,151.1 131.1,150.7 131.2,150.3 131.5,149.8 
		131.7,149.5 133.2,148.9 139.3,149.9 139.9,149.9 140.9,149.7 141.4,149.5 143,148.1 143.4,147.6 143.3,146.3 142.8,144 143,142.8 
		143.6,140.9 143.8,139.9 143.5,139.1 142.4,137.2 142,136.2 141.4,131 140.6,127.5 140.1,121.2 140.2,119 141.1,116.7 141.1,116.8 
		141.1,116.7 141.5,116.1 142.6,113.9 145.3,109.9 145.5,108.4 145.1,106.9 142.2,102.9 141.7,101.9 141.9,100.8 142.9,99.3 
		143.3,97.3 143.4,95 143.3,92.9 142.9,91.3 141.5,89.7 141,88.7 141.3,87.7 142.4,86.3 143.1,85.8 144.1,85.4 146.1,85 147.1,84.6 
		147.6,83.9 150.2,76.1 150.6,73.9 150.2,71.6 149.1,70.2 148,69.3 147.5,68.9 146.5,67.6 147,66.1 147.8,65.4 149.4,64.4 
		150.1,63.8 150.5,62.9 150.7,60.6 151.1,59.6 151.4,59.2 152.1,58.7 152.4,58.3 153.3,56.4 153.8,55.9 153.8,54.6 153.5,52.3 
		154,50.1 155.1,48.4 155.9,46.7 155.5,44.4 153.7,41.7 153.5,41.1 153.8,40.3 154.6,39.7 156.4,39.2 157.4,39.4 158,39.2 
		158.2,38.4 158.4,37.2 158.5,36.7 	"/>
	<polygon id="Santa_Fe" class="st0" points="135.2,2 123.6,2 105.1,2.1 79.8,2 78.2,12.6 75.7,29.4 73.4,43.9 72.2,51.9 69.9,66.8 
		68.6,74.7 68.7,75.4 68.9,75.9 74.7,82.5 75.9,84.3 75.7,86 69,111.2 68.5,112.2 67.4,113.3 66.3,114.2 66,114.6 65.9,115 
		65.9,115.2 66.3,115.8 66.4,116 66.4,116.2 66.5,116.4 66.4,116.7 66.3,118.1 66.3,118.6 66.5,120.4 66.5,120.6 66.6,120.7 
		66.6,120.9 67,121.4 67.2,121.8 67.3,121.9 67.3,122.1 67.3,122.4 67,123.3 66.7,123.8 66.6,124.3 66.5,125.1 66.4,127.6 
		67.1,128.3 67.7,128.8 68.5,129.8 68.7,130 69.5,130.4 70,130.7 70.1,130.8 70.2,131.1 71,133.8 71.2,134.2 71.8,135.3 73.6,136.7 
		74,137 74.3,137.5 74.4,137.6 74.6,138.4 74.8,139.3 74.8,140.3 74.9,140.5 75.1,140.8 75.2,140.9 75.5,141.1 75.6,141.3 
		75.7,141.5 75.7,141.8 75.6,142.1 75.6,142.3 75.5,142.5 75.4,142.8 75.3,143 74.9,143.5 74.9,143.6 74.9,143.7 75.1,143.9 
		75.3,143.9 76.1,144.1 76.3,144.1 76.4,144.2 76.5,144.3 76.6,144.4 77.4,145.8 77.8,146.9 77.9,147 78,147.2 78.7,147.8 
		78.8,147.9 78.9,148.1 79.1,148.5 79.1,148.7 79.2,149 79.1,149.3 78.9,149.8 78.6,150.5 78.5,151.2 78.5,153.1 78.5,153.8 
		78.4,154.4 78.3,154.6 77.9,155.3 77,156.3 76.6,156.6 76.2,156.9 76,157 75.9,157 75.5,157.1 75.4,157.1 75,157 74.2,158 
		68.3,167.6 60.3,180.7 49.7,198 64.6,198 78.4,197.8 79.7,197.8 88.4,188.1 94.7,181.1 99.4,175.7 100.3,174.3 100,173.3 
		100.3,172.6 100.5,172.3 100.7,172.1 100.9,172 101.1,171.9 101.7,171.7 102.1,171.7 102.6,171.7 103,171.8 103.2,171.8 104,172.3 
		104.3,172.4 106.9,172.5 107,172.5 107.2,172.6 108.2,173.3 108.9,174.1 109.1,174.2 109.3,174.3 109.8,174.5 110.4,174.6 
		110.8,174.5 110.9,174.5 111.5,174.3 112.2,173.9 112.4,173.6 113.3,171.6 113.5,171.3 113.6,170.5 113.8,169 113.9,168.8 
		114,168.7 115.1,167.8 115.4,167.5 115.5,167.3 115.6,167.1 115.6,166.9 115.5,166.6 115.5,166.4 115.5,166.1 115.5,165.9 
		115.6,165.4 115.7,165.3 115.8,165.1 115.9,165 116.1,165 116.4,164.9 116.6,164.8 116.8,164.7 117.1,164.4 117.3,164.2 117.4,164 
		117.4,163.5 117.4,163.2 117.4,163.1 116.9,162.4 116.1,162 115.5,161.4 115.4,161.2 115.1,160.6 114.6,160.1 114.3,159.9 
		114.1,159.8 113.8,159.6 113.3,159.4 111.6,158.2 110.1,156.3 110,156 109.3,153.9 109.2,153.7 109.1,153.6 108.9,153.3 
		108.7,153.2 108.3,152.5 106.9,149.6 106.5,148.4 106.3,147.2 106.1,144.4 105.9,143.8 105.7,143.2 104.7,141.7 104.5,141.2 
		104.4,140.7 104.5,140.1 105.3,138.1 105.5,137.4 105.6,136.8 105.4,134.9 105.4,134.3 105.6,133.6 106.1,131.8 106.2,131.2 
		106.2,130.5 106,128.7 106.1,128.1 106.3,127.5 107.1,126 107.3,125.4 107.2,124.8 106.8,124.2 106.1,123.1 105.8,122.4 
		105.7,121.6 105.7,120.9 106,120.2 106.8,119.1 106.9,118.7 107,118.4 107.1,117.4 107.4,116.5 107.6,116 107.5,115.6 107.5,115.6 
		107.6,115.5 107.6,115.5 107.5,115.3 107.5,115 107.5,114.7 107.6,114.5 107.8,114.3 108,114.2 108.8,114 109.3,114 109.8,114 
		111.6,114 112.2,113.9 112.7,113.8 113.3,113.5 113.8,113.2 114.6,112.4 115.4,111.6 116.7,109.5 117.4,108.8 117.8,108.2 118,108 
		118.3,107.6 118.7,107.5 118.8,107.4 119.1,106.9 119.2,106.7 119.4,106.6 119.6,106.5 120,106.3 120.2,106.2 120.3,106.1 
		120.8,105.1 121.9,103.8 122.1,103.4 122.2,103.3 123,100.8 123.2,100.3 124.3,99.4 124.6,99 126.2,96.1 127.8,93.8 128.8,91.8 
		130,90.2 130.6,89.2 132,87.3 133.5,84.4 133.7,83.8 133.8,82.1 133.9,81.5 134.5,80 134.5,79.5 134.6,77.7 134.7,76.6 134.7,76.1 
		134.7,75.6 133.9,74.2 133.7,73.7 133.5,72.3 133.3,70.9 133.4,70.4 133.9,68.9 134,68.3 134,67.2 134.1,66.6 134.3,66.1 
		135.1,64.6 135.2,64.1 135.3,63.5 135.2,62.4 134.3,59.9 133.4,58.3 133.2,57.4 133.4,56.6 134.3,54.9 134.4,54.5 135.4,50.4 
		135.4,44.2 135.6,43.2 136.5,39.7 136.9,38.8 137.5,38.1 138.2,37.6 138.9,37.1 141.5,36.2 142.2,35.6 142.9,34.9 143.7,34.3 
		144.9,33.6 145.3,33.3 145.7,32.5 145.8,31.5 145.8,29.5 145.9,29.5 146.1,28.9 146.7,27.9 146.9,27.3 146.9,26.6 147.2,25.6 
		147.2,25.3 147.2,25 147.1,24.8 147.1,24.3 147.3,23.7 148.3,21.8 148.5,21.3 148.6,20.7 148.6,20.1 148.5,17.8 149.1,14 
		149.1,13.5 148.6,12.2 148.5,11.6 148.7,9.9 148.7,9.4 148.5,8.3 148.5,7.7 148.6,7.2 148.7,6.7 149,6.2 149.3,5.9 149.8,5.6 
		150.3,5.6 151.4,5.6 152.2,5.3 153,4.8 153.6,4.1 154.1,3.3 154.4,2 	"/>
	<polygon id="Santiago_del_Estero" class="st0" points="171.6,26.1 171.1,9 169.9,5.4 107,5.4 86.9,5.1 85.6,4.6 85.5,4.6 78.2,2.2 
		76.7,2 75.9,3 67.8,21 67.6,21.7 67.5,22.3 67.5,23.6 67.5,24 67.2,24.8 65.8,27.5 65.7,27.8 65.4,29.2 65.6,32.2 65.5,33.4 
		64.1,38 64,38.5 64,38.9 64.6,43.2 65,46.4 65,48 64.9,48.7 64.7,49 62.3,48.6 61.8,48.7 61.5,49.2 60.5,53.2 60.3,53.6 60,53.9 
		59.8,53.9 59.4,54 58.8,54 58.6,54 58.3,54.2 58,54.8 57.5,56.8 56.2,62 55.6,63.2 55.4,63.3 55.2,63.4 54.9,63.6 54.6,64.1 
		54.4,64.5 54.3,64.9 53.7,67.3 53.3,69.1 52.1,72.1 51.4,73.1 51.2,73.4 50.4,75.8 50.1,76.2 49.9,76.5 49,76.6 48.6,76.9 
		48.1,77.4 46.3,79.6 45.7,80.1 43.4,82.9 43.5,83 44.1,83.4 44.7,83.6 45.4,83.7 46.1,84.1 46.9,84.5 47,84.6 47,84.9 47,85 
		46.9,85.2 46.4,86 46.2,86.4 46,86.5 45.7,86.8 45.5,86.9 45.3,87 45.1,87 44.9,87 44,87 43.8,87.1 43.6,87.2 43.2,88.4 43.2,89.4 
		44.7,93.2 45.8,95.4 45.8,96.1 45.8,96.1 45.6,96.1 45.2,96 44.9,96.2 44.6,96.6 43.5,100 43.2,100.7 43,100.9 42.7,101.1 
		42.3,101.3 41.9,101.4 41.5,101.4 40.8,101.2 40.6,101.2 40.3,101.2 39.9,101.4 39.3,101.7 42.8,117.6 43,124 42.8,126.5 
		42.3,127.6 41.9,128.3 41,129.3 40.4,130.1 40,131.1 39.7,131.3 39.1,131.7 39,131.9 38.9,132.1 38.9,133.7 39,133.9 39.1,134.1 
		39.2,134.1 39.5,134.2 41.1,135.1 41.9,135.8 42,136.1 42.1,136.3 42.3,137 42.9,145.6 42.8,149.2 44.5,162 46.1,166 48.6,170.4 
		49,171.3 49.1,171.5 49.5,172.5 50.3,173.6 61.5,170.7 68.6,168.8 72.8,167.8 74.3,167.7 81.8,169.7 82.2,169.9 82.3,170.1 
		82.4,170.6 82.3,171.7 82.2,172.2 82.4,172.6 83,173 85.8,174.6 86,174.8 86.3,175.4 86.6,175.7 86.9,175.9 89.3,176.4 89.7,176.5 
		89.9,176.7 90.3,177.1 90.8,177.4 91.1,177.5 91.4,177.6 93.7,177.8 94.4,177.8 98.9,177.1 99.5,177.2 102.2,178 102.6,178.1 
		104,177.7 104.3,177.8 104.6,177.9 104.7,178.1 104.8,178.3 104.8,178.5 104.8,178.8 104.6,179.9 104.6,180.2 104.8,180.5 
		105.1,180.6 106.5,180.8 106.9,180.9 107.1,181.1 107.2,181.3 107.2,181.6 107.2,182.4 107.3,182.7 107.5,182.9 107.6,183 
		108.4,183.1 130.2,183.2 143.2,183 149.5,183.2 151.2,184.5 157.2,200 160.5,178.3 162.4,166.7 165.6,145.5 169.3,121.1 
		171.6,105.7 171.6,97.5 171.6,53.7 171.6,30.9 	"/>
	<polygon id="Córdoba" class="st0" points="164.3,119.9 164.3,119.6 164,119.1 163.9,118.9 163.8,118.8 163,118.1 162.9,117.9 
		162.8,117.7 162.3,116.5 161.4,114.9 161.3,114.8 161.2,114.7 161,114.6 160.8,114.5 159.9,114.4 159.7,114.3 159.5,114.2 
		159.4,114 159.5,113.8 159.9,113.3 160,113.1 160.2,112.7 160.3,112.5 160.3,112.3 160.3,112 160.3,111.6 160.3,111.3 160.1,111.2 
		159.8,111 159.6,110.8 159.5,110.5 159.4,110.3 159.3,109.1 159.1,108 158.9,107.2 158.8,107 158.4,106.5 158,106.1 155.9,104.5 
		155.2,103.3 155,102.8 154.1,99.8 154,99.4 153.8,99.3 153.3,98.9 152.4,98.5 152.1,98.3 151.2,97.1 150.6,96.6 149.8,95.7 
		149.8,92.8 149.9,91.9 150.1,91.3 150.4,90.8 150.7,89.8 150.8,89.4 150.8,89.2 150.7,89 150.4,88.6 150,88 149.9,87.9 149.9,87.7 
		149.8,87.5 149.6,85.4 149.6,84.9 149.8,83.3 149.8,82.9 149.8,82.6 149.7,82.4 149.7,82.3 149.2,81.5 149.2,81.3 149.2,80.9 
		149.6,80.4 150.8,79.3 152.2,78.1 152.7,76.9 160.3,48.2 160.6,46.2 159.2,44.1 152.5,36.6 152.3,36 152.3,35.2 153.7,26.2 149,14 
		147.7,13 142.7,12.8 132.5,13 115.4,12.9 114.8,12.8 114.7,12.7 114.5,12.5 114.5,12.3 114.5,11.7 114.5,11.5 114.4,11.3 
		114.2,11.2 113.9,11.1 112.8,10.9 112.6,10.8 112.4,10.6 112.4,10.4 112.6,9.5 112.6,9.3 112.6,9.1 112.5,8.9 112.4,8.8 112.2,8.7 
		111.9,8.7 110.8,8.9 110.6,8.9 108.4,8.2 108,8.2 104.4,8.7 103.8,8.8 102.1,8.6 101.8,8.5 101.6,8.4 101.2,8.2 100.9,7.8 
		100.7,7.7 100.4,7.6 98.5,7.2 98.3,7.1 98.1,6.9 97.8,6.3 97.7,6.2 95.5,5 95,4.6 94.8,4.3 94.9,3.9 95,3.1 94.9,2.7 94.8,2.5 
		94.5,2.4 88.7,0.8 87.5,0.9 84.2,1.7 78.6,3.2 69.8,5.4 67.7,6.2 67.4,7.3 68.3,15.3 68.3,15.9 68,16.5 64.7,20.2 62.1,22.9 
		60.6,23.7 54.2,25.6 51.7,32.8 51.3,33.8 50.6,34.8 50.5,35.2 50.1,36.6 49.3,39 49.1,40 49.1,40.6 46.6,48 46,49.7 45.6,50.8 
		43.6,56.8 43.2,58.9 43.3,65.1 43.4,77.3 43.5,86.7 46.1,86.7 47,87 48.6,87.8 56.9,92.9 57.8,93.9 58.6,94.7 58.8,95 58.9,95.2 
		59,95.7 59.1,95.9 59,96.6 59.1,97 59.1,97.4 59.3,98.1 59.6,98.8 60.1,99.5 60.1,99.6 60.2,100 60.2,101.5 60.2,101.7 60.3,102.1 
		60.4,102.3 60.6,102.4 61,102.5 64.2,102.1 67.2,101.2 67.7,101.1 67.9,101.1 68.1,101.1 68.3,101.2 68.4,101.3 68.6,101.4 
		68.7,101.7 68.8,102.2 68.8,103.3 68.7,104.2 68.6,105.1 68.6,106 68.7,106.3 68.8,106.7 69.5,108 69.6,108.6 69.8,109.3 70,110.1 
		70,110.3 70,110.6 70,111.8 69.8,112.8 69.1,114.4 68.9,115.8 68.8,116.1 68.7,116.3 68.5,116.6 68,117 67.9,117.2 67.9,117.5 
		67.9,117.9 67.9,118.3 67.9,118.6 67.8,118.8 67.4,119.6 67.3,119.8 67.2,120.1 67.2,121.4 67.2,121.7 67.1,122 65.9,124.3 
		65.8,124.5 65.8,124.8 65.9,125.2 66.1,125.8 66,126.2 65.9,126.6 65.1,128.1 65,128.5 65,129.1 65.3,129.9 65.3,130.1 65.3,130.3 
		65.1,130.6 64.9,130.8 64.7,130.8 64,131 63.7,131.1 63.6,131.1 63.5,131.3 63.4,131.4 62.5,133.1 62.4,133.5 62.3,133.7 63.7,161 
		63.7,198.8 63.7,198.8 81.7,198.8 97.6,198.8 114.8,198.8 114.8,183.4 115.1,177.4 116.1,176.2 130.7,176.2 142.8,156.4 152,141.4 
		158.7,130.4 159.6,129.3 160,129.4 160.2,129.4 160.6,129.3 160.8,129.3 160.9,129.2 161.4,128.9 161.8,128.6 162.9,127.4 
		163.3,126.6 163.4,126.3 163.5,125.7 163.6,124.8 163.6,122.6 163.7,121.9 164.1,121 164.3,120.5 164.3,120.2 	"/>
	<polygon id="La_Rioja" class="st0" points="179.1,99.2 177.6,94.9 175.1,89.4 172.5,83.1 172.1,81.4 171.6,78.5 171.5,77.9 
		171.6,77 171.6,74.8 171.5,74.3 171.2,73.6 170,71.3 162.7,64 162.3,63.8 161.4,63.4 156.5,58.2 154.7,57 147.8,53.7 147,53.2 
		146.6,52.8 146,51.9 146,51.7 145.9,51.4 146,51 146.3,50.4 146.5,50.1 146.9,49.7 147.7,48.4 147.8,48.2 147.8,47.9 147.7,47.5 
		147.7,47.3 147.1,46.9 146.2,46.4 146,46.3 145.2,45.7 143.9,44.4 142.5,42.4 142.1,41.6 141.6,37.8 141.2,36.2 141.1,36 
		140.9,35.8 140.6,35.4 140.3,34.8 139,33.7 137.6,31.8 129.6,28.4 121.5,25.5 120.2,25.5 119.3,26 118.8,26.2 118.6,26.4 
		118.4,26.5 118.3,26.7 118.2,27 118.1,27.2 117.9,27.5 117.2,28.3 116.9,28.6 116.5,28.9 116,29.1 112.9,29.6 109.9,29.7 
		91.8,28.8 89.2,29.5 88.5,29.8 87.5,30.7 86.9,30.8 86.5,30.3 86.3,29.8 86.2,29.1 86.1,28.8 86,28.6 85.8,28.3 85.2,27.6 
		83.3,24.8 83.2,24.6 82.7,23 82.6,21.2 82.4,20.5 82.4,20.2 82.6,19.3 82.6,19 82.4,18.8 82.2,18.6 81.8,18.5 81.2,18.5 80.9,18.7 
		80.2,19 79.8,19.1 79.2,19.1 78.9,19.1 78.3,19.4 77.5,19.8 76.7,20.1 76.2,20.3 75.9,20.2 75.5,20.1 75,19.7 74.5,19.1 74.4,18.9 
		74,18.4 73.7,18.1 73.5,18 73.1,17.8 71.3,17.2 70.2,17.1 68.9,17.2 68.6,17.2 68.3,17.1 68,16.9 67.6,16.5 67.2,16 66.7,15.2 
		66.2,14.5 65.8,14.2 65.4,14 65.1,13.8 64.7,13.7 64.1,13.6 63.3,13.6 62.8,13.7 62.5,13.6 62.2,13.5 61.6,13.1 61.6,13 61.5,13 
		61.4,12.6 61.4,12.4 61.4,12.1 61.4,11.5 62,9.1 62.1,8.9 62.1,8.6 62,8.3 62,8.1 61.5,7.3 61.4,7.1 61.3,6.7 61.3,6.1 61.4,5.6 
		61.4,5.3 62.1,3.1 62.2,2.5 62.2,2.2 62.1,2 62.1,1.7 62,1.5 61.9,1.3 61.6,1.2 61.1,1 59.2,0.8 58.8,0.9 58.4,1.1 57.9,1.5 
		57.5,1.8 57.2,2.1 57,2.2 56.4,2.5 56.1,2.5 55.7,2.5 55.1,2.4 54.7,2.2 53.8,1.7 53.6,1.6 53.2,1.6 52.8,1.6 51.7,1.8 48.9,2.2 
		48.5,2.3 47.7,2.7 44.9,3.5 33.8,2.6 33.3,2.5 31.7,9.5 31,10.8 29.9,11.6 27.5,12.3 26.9,12.6 26.4,13 26,13.7 25.9,14.1 26,14.4 
		26,14.8 25.2,15.5 23.7,19.1 22.8,20.6 21.9,22.4 21.6,22.9 20.9,22.7 20.1,22.1 19.3,21.8 18.7,22.3 18.3,24.7 17.9,25.5 
		16.1,27.8 13.9,29.6 12,31.5 12,31.7 14.8,32.4 15.1,32.5 15.9,33.1 16.2,33.3 16.5,33.4 17.1,33.4 17.6,33.4 18.3,33.1 18.7,33 
		19.2,32.9 19.4,32.9 19.7,33 20,33.3 20.6,34.4 20.8,34.7 21.1,34.9 21.6,35.2 21.9,35.4 22.3,35.4 24.3,35.2 24.6,35.4 25,35.6 
		31,40.7 32.1,41.9 32.7,43.6 33.3,44.7 33.8,46.1 34.1,47.9 34.5,49.2 37.3,51.7 37.9,52.5 38.5,53.3 38.9,54.8 39.5,56.6 
		39.8,57.1 40.2,57.5 41.3,58.3 41.7,58.7 42,59.1 42.2,59.4 42.3,59.7 42.5,60.3 42.5,60.7 42.4,61.1 42,61.9 41.6,62.2 41.1,62.4 
		40.6,62.6 40.2,62.9 39.8,63.3 38.8,65.1 38.6,66.6 38.6,68.8 38.7,70.5 39.4,71.2 40.1,71.9 40.4,72.8 40.8,73.5 41,73.7 
		41.1,73.9 41.1,74.1 41.1,74.4 40.9,74.8 40.6,75 40.4,75.1 40.2,75.2 40,75.3 39.8,75.7 39.6,76.3 39.3,79.1 39.6,80.4 39.6,80.8 
		39.5,81.3 39.3,81.6 38.7,82.3 38.2,83.3 38.1,83.5 38,84.1 37.7,86.5 37.8,87.8 37.9,88.3 38.1,88.6 38.2,88.8 39.7,89.4 
		40.6,89.4 43,88.6 43.3,88.6 43.7,88.7 44.9,89.2 45.4,89.3 46,89.3 46.4,89.2 46.7,89.2 48.8,88.3 50,88 51,87.8 51.4,87.9 
		51.9,88.1 54.2,89.6 54.5,89.8 54.9,89.9 55.6,90 56,90 56.6,90 57.6,89.8 58.1,89.7 59.3,89.8 64.4,91.6 65.6,91.7 65.9,91.8 
		66.2,92.1 67.2,93.7 67.8,94.3 69.4,95.4 71.9,97 72.4,97.5 72.7,98 72.9,98.6 73.1,99.1 73.2,99.3 73.3,99.5 73.5,99.7 73.8,99.8 
		75.6,100.4 76.5,101.1 78.5,103.1 78.7,103.8 79,104.7 79.2,105 79.5,105.2 81,106.1 81.2,106.4 81.5,106.7 82.6,108.4 83.2,109 
		84.3,109.9 84.8,110.2 86.9,111 87.1,111.3 87.4,111.6 88.5,113.3 88.9,113.8 94.6,118.3 94.9,118.7 96.2,120.8 96.8,121.9 
		97.2,123.9 97.3,124.3 97.4,124.6 97.6,124.8 97.9,125.1 100.6,126.8 100.8,127.1 101.1,127.4 102.1,129.5 102.4,129.8 
		102.9,130.4 104.6,131.9 105.5,132.5 105.9,132.8 106.5,133.5 108.5,136.6 108.7,137 109.8,138.6 110.1,139 110.4,139.2 112.1,140 
		112.3,140.1 112.7,140.4 113.1,141 114.7,145 115.2,145.8 115.7,146.5 116.4,147.7 117.1,148.9 117.2,149.2 117.3,149.6 
		115.7,154.5 115.9,155.9 118.1,158 116.3,171 116.7,172.2 118.2,175 118.5,176 118.5,178.6 118.6,179.1 118.8,179.5 119.1,179.9 
		122.4,183.2 122.8,183.5 123.1,183.7 123.6,183.8 126,184.1 126.3,184.2 126.5,184.5 126.6,185.1 126.6,185.9 126.6,186.2 
		127.1,188.2 127.1,189.6 127.2,189.9 127.4,190.2 127.8,190.5 128.2,190.7 128.5,190.7 128.7,190.6 129.1,190.8 129.5,191.2 
		130.5,193.1 131.6,196.1 134.4,196.7 135.3,197 136.4,197.7 136.9,197.9 137.2,197.9 137.6,198 138.2,197.8 139.1,197.4 
		139.4,197.3 139.7,197.4 140.1,197.6 141,198.2 141,198.2 141.3,198.2 143.4,197.9 143.8,197.9 144.1,198 144.7,198.2 145.8,198.8 
		146.2,198.8 146.6,198.8 147.9,198.5 148.5,198.5 150.5,198.7 152.6,198.4 154.6,197.7 156.3,196.7 157.2,196.4 159.2,195.8 
		160.8,195.8 162.7,196.2 163.1,196.3 163.4,196.5 164,196.9 164.3,197 164.6,197.1 165.3,197.3 167.2,197.3 171.3,196.5 
		171.2,183.7 171,167 171,158.7 171.5,155.7 174.2,147.6 174.7,146 175.6,143.7 178.9,133.6 179,132.9 179.3,131.5 180.3,128.2 
		180.8,126.3 181,125.8 181.9,124.4 182.5,123.1 185.9,113.2 	"/>
	<polygon id="San_Juan_Province" class="st0" points="187.2,172.5 186.1,170.4 185.7,170 185.3,169.8 185,169.9 184.7,169.9 
		184.4,169.7 183.9,169.3 183.7,169 183.6,168.7 183.6,167.2 183.1,165.1 183.1,164.8 183.1,164 183,163.3 182.7,163 182.4,162.9 
		179.9,162.6 179.3,162.4 179,162.3 178.6,162 175.1,158.4 174.7,158 174.5,157.6 174.4,157 174.4,154.3 174.1,153.2 172.6,150.2 
		172.1,149 174,135.1 171.6,132.9 171.5,131.4 173.1,126.2 173.1,125.8 173,125.5 172.2,124.2 171.5,122.9 170.9,122.1 170.4,121.3 
		168.7,117.1 168.3,116.5 167.9,116.1 167.7,116 165.8,115.2 165.5,114.9 165.2,114.5 164.1,112.8 163.8,112.4 161.7,109 161,108.3 
		160.6,108 159.7,107.4 157.9,105.8 157.3,105.2 157,104.8 155.9,102.6 155.7,102.3 155.4,102 152.6,100.2 152.2,99.9 152,99.6 
		151.9,99.4 151.8,98.8 151.3,96.8 150.7,95.5 149.4,93.4 149,93 143,88.2 142.5,87.6 141.4,85.8 141.1,85.5 140.8,85.2 138.7,84.3 
		138.1,84 136.9,83 136.3,82.4 135.1,80.6 134.8,80.3 134.5,80 133,79.1 132.7,78.8 132.5,78.5 132.1,77.5 131.9,76.8 129.8,74.6 
		128.9,73.9 126.9,73.3 126.6,73.1 126.3,72.9 126.2,72.7 126.1,72.5 126,72 125.7,71.3 125.4,70.8 124.8,70.3 122.3,68.6 
		120.6,67.4 119.9,66.7 118.9,65.1 118.6,64.8 118.2,64.7 117,64.5 111.5,62.7 110.2,62.6 109.6,62.6 108.6,62.8 108,62.8 
		107.5,62.8 106.8,62.7 106.4,62.6 106.1,62.5 103.6,60.8 103.1,60.6 102.7,60.6 101.6,60.7 100.3,61 98.1,62 97.8,62.1 97.4,62.1 
		96.7,62.1 96.2,62 94.9,61.5 94.5,61.4 94.1,61.4 91.6,62.2 90.6,62.3 89.1,61.6 88.9,61.3 88.7,61 88.6,60.5 88.5,59.1 88.8,56.6 
		89,56 89.1,55.7 89.6,54.7 90.3,53.9 90.4,53.6 90.6,53.1 90.5,52.6 90.3,51.3 90.6,48.3 90.7,47.6 90.9,47.2 91.2,47.1 91.4,47 
		91.7,46.9 91.9,46.7 92.1,46.3 92.2,46 92.1,45.7 92,45.5 91.8,45.3 91.4,44.6 91.1,43.6 90.3,42.9 89.6,42.1 89.4,40.3 89.5,38 
		89.7,36.4 90.8,34.5 91.2,34 91.6,33.7 92.1,33.5 92.7,33.3 93.2,33 93.6,32.2 93.6,31.7 93.6,31.2 93.4,30.6 93.3,30.4 93.1,30 
		92.8,29.6 92.3,29.2 91.2,28.3 90.8,27.8 90.5,27.3 89.8,25.5 89.3,23.9 88.8,22.9 88.1,22.1 85.2,19.5 84.7,18.1 84.3,16.2 
		83.8,14.6 83.2,13.6 82.6,11.7 81.4,10.4 75,5 74.7,4.8 74.3,4.6 72.1,4.8 71.8,4.8 71.4,4.6 70.8,4.3 70.6,4 70.4,3.8 69.7,2.5 
		69.4,2.3 69.1,2.1 68.8,2.1 68.3,2.2 67.9,2.4 67.2,2.6 66.6,2.7 66,2.6 65.7,2.5 65.3,2.3 64.5,1.8 64.1,1.6 61.2,0.8 60.4,3.6 
		60.3,8.9 60.2,9.4 59.9,9.6 59.5,9.7 59.2,9.9 58.3,11.2 57.4,12.7 56.9,14.3 56.8,16 57,17.1 57.6,19.2 57.8,20.3 57.7,21.2 
		56.4,23.5 56.3,24 56.3,24.4 56.3,24.8 56,25.2 55.5,25.8 55.1,26.6 54.7,27.5 54.6,28.5 54.6,29.5 54.8,30.5 55.1,33 55,34.3 
		54.7,35.4 53.9,36.5 52.9,37 50.8,37.4 50,37.7 49.9,37.9 49.9,38.3 49.6,38.9 49.1,39.3 47.9,40.1 47.3,40.7 47,40.8 46.8,40.9 
		46.6,41.2 46.7,41.5 47.2,42.2 47.3,42.5 47,43 46.6,43.3 46.2,43.6 45.7,43.8 44.8,44.3 44.4,45.3 44.2,47.8 44.3,48.6 44.6,49.3 
		45,50 45.3,50.7 45.7,53.3 46.1,53.7 46.3,54.3 46.5,54.9 47.5,59.6 47.5,61.1 47.3,62.6 47.3,63.8 47.8,64.7 48.9,65.7 49.2,66.3 
		49.3,66.4 49.8,70.7 49.6,77.5 49.3,79.3 48.7,81.1 47.2,83.4 47,84.1 47.3,85 48,85.2 49.7,84.9 51.4,85.5 52.7,86.9 53.3,88.6 
		52.7,90.5 52.4,90.8 51.5,91.2 51.1,91.6 50.9,92 50.8,92.5 50.6,93.4 50.5,95.3 50.4,96.2 50,97.1 48.9,98.4 47.7,99.3 46.4,100 
		44.9,100.5 43.4,100.1 39.8,98.3 38.6,98.8 38.6,99.7 39.7,101.6 39.9,102.6 39.6,103.6 39.1,104.2 38.4,104.5 37.6,105 
		36.7,106.4 35.9,110.3 35.3,112.1 34.4,113.6 34.2,114.4 34,115.4 34,116.1 34.1,116.6 34.2,117.1 33.9,117.7 33.1,118.7 
		32.9,119.1 32.3,120.9 31.4,127.8 31.6,128.7 32,129.5 32.8,130.4 34,131.5 34.5,132.2 34.6,132.8 34.1,133 32.2,132.7 31.4,133.1 
		30.4,134.7 30,135.6 29.6,137.1 29.1,137.9 28.4,138.6 27.8,138.8 27.2,138.1 27,137 26.7,135.9 25.8,135.5 25.3,135.9 22.9,139.7 
		22.6,140.5 22.5,141.5 22.6,143.5 22.4,144.4 21.4,146.4 21.5,147.4 21.8,148.3 22.1,149.4 21.9,150.4 21.2,152 21,152.9 21,154.8 
		20.9,156.7 20.5,158.9 20.5,159.8 20.9,161.1 23.2,165.8 24.6,167.3 25,168.2 24.9,170.4 25.1,171.6 25.5,172.7 26,173.7 
		27.5,175.3 29,175.7 30.6,175.6 32.5,175.9 33.3,176.4 34.2,177.2 35.1,178.2 35.5,179 35.7,180 35.4,180.7 35,181.3 34.6,182 
		34.2,183.9 33.8,184.4 32.7,184.4 30.9,183.7 29.9,183.5 29.3,184.1 29.3,184.7 29.4,185.1 30.2,185.9 30.5,186.4 30.6,186.8 
		30.5,187.8 30.7,188.3 31.4,188.8 31.6,189.1 31.5,189.6 31.2,190.5 31.1,190.9 31.3,191.6 31.8,192.7 31.8,192.7 31.9,193.2 
		32,193.7 31.8,194.6 31.8,195.1 32.2,196.3 32.7,196.8 33.5,196.9 34.5,197.3 35,198.1 35.5,197.9 42.2,196.8 44,196.8 45,197.2 
		47,197.6 55.5,195.6 60.5,195.3 60.9,195.2 61.4,194.9 61.7,194.7 61.9,194.4 62.1,194.2 62.2,194 62.3,193.7 62.4,193.3 
		62.4,192.7 62.3,189.8 62.3,189.5 62.4,189.2 62.5,188.9 62.7,188.7 63,188.3 63.2,188.1 63.6,187.9 63.9,187.8 66.6,186.9 
		67.5,186.5 68,186.2 69.1,185.3 69.9,184.8 70.2,184.7 71.3,184.5 73.7,184.6 75.8,185 76.6,184.9 77,184.7 77.3,184.5 77.4,184.4 
		77.6,184.2 77.7,183.9 78.3,182.5 78.5,182.1 78.6,182 78.8,181.8 79.4,181.6 79.9,181.5 80.2,181.4 80.4,181.2 81,180.2 81.1,180 
		81.4,179.9 81.6,179.7 82,179.7 82.8,179.8 83.3,180 83.8,180.3 84.3,180.8 86.1,183 86.5,183.9 86.8,184.3 87.1,184.8 88,185.6 
		88.6,185.9 90,186.1 92.1,185.6 92.7,185.6 92.9,185.7 93,185.9 93.9,198.7 94.2,199.1 94.6,199.3 103.2,199.2 105.4,198 
		113,192.7 114.5,191.5 115.1,190.5 115.5,190 116,189.7 121.3,189.4 122.2,189.1 123.7,188.4 125.4,187 125.9,186.7 130.7,185.5 
		132.2,185.5 133.8,186.5 134.9,187.7 135.4,188.4 135.8,190.1 136.3,190.6 138,191.4 138.6,191.9 139.1,192.5 140.1,194 
		140.5,194.2 144.5,194.9 144.7,194.9 145.2,194.6 145.5,194.6 145.9,194.7 146.6,194.3 147,194.4 148.2,194.2 150.8,193.6 
		153.7,193.6 154.3,193.5 154.8,193.3 155.2,192.9 156.3,193.2 159.5,195.4 159.6,191.9 159.5,190.3 159.6,187.2 159.5,186.4 
		159.4,185.2 159.5,184.8 159.6,184.2 160.2,181.9 160.3,181.9 160.3,181.6 160.3,181.3 160.3,180.8 160.1,180.2 160,180.1 160,180 
		160,179.9 160,179.8 160.1,179 160,178.5 159.8,177.3 159.7,176.7 159.7,176.4 159.8,176.1 159.9,175.7 160.2,175.1 160.7,174.7 
		161.7,174.1 163.5,174.5 164.8,174.9 165.5,175.1 166.4,175.1 170.1,174.9 171.6,174.4 172,174.4 172.5,174.4 173.5,174.7 
		174,174.8 174.4,175 174.9,175.5 175.1,175.7 175.4,175.8 175.6,175.9 177.3,176.2 188.3,175.6 	"/>
	<polygon id="Mendoza" class="st0" points="163.1,115.4 163.2,115.1 163.3,114.6 163.2,114.3 163,114 162.7,113.6 163.2,111.6 
		163.3,111 163.1,110.4 162.6,109.3 162.5,108.9 162.4,108.3 162,107 161.9,106.5 162.1,104.7 162.1,103.9 161.3,101.4 157.9,94.5 
		156.5,93 156.3,92.5 156.2,91.7 155.5,89.5 155.3,86.5 155.1,85.8 154.6,85.4 154.4,84.9 154.7,84.2 154.4,83.5 154.3,80.8 
		154.1,80 154.1,79.5 154.5,78.8 154.6,78.3 154.7,78.2 154.9,78.2 155.3,78.4 155.5,78.4 155.9,77.9 156,77.2 156.1,75.3 
		156.3,74.3 156.3,73.7 155.8,72.8 155.6,71.8 155.3,71.3 154.9,70.9 154.5,70.6 154.1,70.1 153.8,68.5 153.5,67.9 153,67.4 
		152.5,67 151.5,66.3 151,65.8 150.8,65.4 150.7,64.7 150,62.4 149.3,61.2 148.9,59.7 148.7,59.4 148.4,58.1 148.2,57.8 147.6,57.2 
		144.8,52.4 144.6,51.6 144.5,51 144.6,49.5 144.5,48.8 143.8,47.2 143.8,46 143.7,45.6 143.4,44.7 143.6,42 143.4,38.8 143.1,38.1 
		143,37.8 143.1,37.4 143.2,36.7 143.2,36.3 142.6,34.9 142.4,33.9 142.5,33.5 143,33.1 143,32.3 142.6,30.9 142.7,30.6 142.9,29.6 
		143.4,28.6 143.3,28.2 143,27.8 142.8,27.2 142.8,26.6 142.5,26.3 142.2,26.1 141.9,25.7 141.7,25.3 141.5,24.9 140.9,22.1 
		140.9,21.6 140.8,21.1 140.4,20.1 140.2,19.1 140.1,18.8 140,18.6 139.8,18.3 139.7,18.1 139.7,17.5 139.7,17.2 139.4,16.9 
		139.1,16.5 138.5,16.1 137.7,12.9 137.6,11.5 135.4,10 134.7,9.8 134.4,10.1 134.1,10.2 133.7,10.2 131.8,10.2 130.1,10.7 
		129.2,10.8 129,10.7 128.5,11 128.3,10.9 128.1,10.9 127.7,11.1 127.6,11.1 124.9,10.7 124.7,10.5 124,9.5 123.6,9.1 123.2,8.8 
		122.1,8.3 121.8,7.9 121.5,6.8 121.2,6.3 120.4,5.5 119.4,4.9 118.4,4.8 115.2,5.7 114.9,5.9 113.8,6.8 112.7,7.3 112.1,7.4 
		108.6,7.6 108.3,7.9 108,8.2 107.6,8.8 106.7,9.6 101.6,13.2 100.1,14 94.4,14 94.1,13.9 93.9,13.6 93.4,5.1 93.3,5 93.1,4.9 
		92.7,4.9 91.4,5.2 90.4,5.1 90,4.9 89.4,4.4 89.2,4.1 89,3.8 88.7,3.2 87.6,1.8 87.2,1.4 86.9,1.2 86.5,1.1 86,1 85.8,1 85.6,1.1 
		85.4,1.2 85.3,1.4 85,2 84.8,2.1 84.6,2.2 84.3,2.3 83.9,2.4 83.8,2.5 83.7,2.6 83.6,2.9 83.2,3.8 83.1,4 83,4.1 82.9,4.2 
		82.7,4.3 82.4,4.4 81.9,4.5 80.5,4.3 78.9,4.2 78.2,4.3 78,4.4 77.4,4.7 76.7,5.3 76.4,5.5 75.7,5.8 74,6.4 73.8,6.4 73.5,6.6 
		73.4,6.7 73.2,7 73.1,7.2 73,7.3 72.9,7.5 72.9,7.7 73,9.7 72.9,10.1 72.9,10.3 72.8,10.5 72.8,10.7 72.6,10.8 72.5,11 72.3,11.1 
		72,11.3 71.7,11.4 68.4,11.6 62.7,12.9 61.4,12.7 60.7,12.4 59.6,12.4 55.1,13.1 54.8,13.2 55.2,13.8 55.1,16.3 55.6,17.4 56.7,18 
		57.2,18.4 57.5,19.1 57.6,19.8 57.6,20.5 57.6,21.1 58.2,22 57.9,22.1 57.3,22.1 57.1,22.4 57,22.7 56.9,23.3 57,24.1 57.7,27.8 
		58.1,28.8 59.7,30.7 60.6,31.7 61.1,32 61.8,32.2 62.2,32.6 62.2,33 61.7,33.9 61.5,34.6 61.2,36 61,36.6 60.6,36.9 59.6,37.1 
		59.2,37.4 59,38.1 59.1,38.6 59.1,38.7 59.4,39.3 59.5,40 59,42 59,42.7 59.3,43.3 59.7,43.8 60.7,44.6 61,45.1 61.9,47.1 62.7,47 
		63.9,45.2 64.9,45 66,45.4 66.9,46 67.6,46.8 67.8,48.7 68.3,49.9 68.4,50.6 68.1,51.1 67.4,52.1 67.1,52.6 67,53.2 66.9,54.8 
		66.8,55.2 66.5,55.4 66,55.6 65.8,55.7 65.7,56.1 65.7,56.4 65.8,56.7 65.9,57.1 65.3,59.1 65.2,59.7 65.5,60.3 66.2,61.4 66.2,62 
		65.9,62.3 64.9,63.1 64.7,63.5 64.6,64.3 65.2,67 65.1,67.6 64.8,69 64.8,69.9 65.1,70.1 65.5,69.9 66.1,70 66.4,71 66.4,72.6 
		66.1,75.2 66,75.8 65.9,76.1 65.8,76.4 66,77 66.2,77.4 66.9,78.8 67.1,79.6 67,80 65,80.9 64.9,81.1 64.9,81.3 64.7,81.4 
		63.7,81.1 63.1,80.9 62.5,80.9 61,81.2 60.8,81.4 60.5,81.7 60.3,82.4 60.3,83.5 60.5,84.5 60.5,85.3 60.2,86 58.9,87.1 58.5,87.9 
		57.8,89.6 57.3,90.3 56.1,91.4 55.6,92 55.2,93.2 54.9,95.9 54.3,97 53.7,97.3 53.2,97.4 53,97.6 53.3,98.2 53.7,98.7 54.1,99 
		54.2,99.5 52,104.9 51.4,107.5 51.4,107.5 51.5,110 51,112.5 46.5,114 45.4,115.8 46,117.1 47.1,117.5 48.4,117.7 49.5,118.3 
		49.8,119.2 49.4,119.6 48.9,119.7 48.5,120 48.6,120.6 49.3,122.9 49.7,123.5 50.1,124 50.4,124.5 50.1,126 50.3,127.4 50.3,128.1 
		50,129.4 50,130 51.3,133.6 51.7,134.4 51.8,135.5 50,137.4 50,138.7 50.3,138.8 50.9,138.7 51.1,139 51.1,139.3 50.9,139.5 
		50.6,139.7 50.5,139.9 50.3,140.6 50.2,141 51.1,143.2 51.2,143.8 51,144.2 50.5,144.8 50.3,145.1 50,146.3 49.7,146.7 49.9,147 
		51,147.8 51.4,148.3 51.5,148.5 51.7,149 51.8,149.2 51.9,149.7 51.8,150.7 51.8,151.2 51.7,151.4 51.6,151.5 51.5,151.7 
		51.4,151.8 51.3,151.9 51.2,152.2 51.1,152.5 51.1,153.1 51.2,153.5 51.3,153.8 51.6,154.7 51.9,155.2 52,155.4 52.1,155.5 
		52.3,155.6 52.5,155.7 52.7,155.7 52.9,155.6 53,155.5 53.2,155.2 53.3,155.1 53.5,155 53.7,155 53.9,155 54.1,155 54.3,155.2 
		54.7,155.5 54.8,155.7 54.9,155.9 55.6,158.4 55.7,158.9 56.5,161.2 57.1,162.5 57.5,163 57.6,163.1 57.9,163.3 60.1,164 
		60.2,164.1 60.5,164.4 60.7,164.6 61.3,165.2 61.5,165.8 61.6,166 61.8,166.2 61.9,166.3 62.5,166.6 63.5,167.5 63.8,168 64,168.7 
		64.4,170.1 64.6,170.4 64.9,170.7 66,171.7 66.1,171.8 66.9,172.1 67.4,172.4 67.8,172.6 68.3,173.1 68.3,174.7 68.5,175.2 
		68.4,175.5 68.4,176.2 68.3,176.6 68.1,177 67.6,177.6 67.5,178 67.7,178.5 69.8,181.2 70.8,182.2 73.1,183.6 74.3,184.1 
		75.7,184.4 77.3,184.5 82.4,183.5 83.6,183.6 85.4,184.5 86.6,184.7 88,185.3 88.5,185.6 89.3,186.6 90,189.4 90.5,190.6 
		91.5,191.3 93,191.7 94.5,191.9 98.1,191.6 98.7,191.9 99.8,193.2 100.4,193.6 100.7,193.6 101.6,193.6 102,193.7 102.6,194 
		102.9,194.1 104.8,194.1 105.4,194.3 105.8,194.8 106.7,196.7 107.2,197.3 107.7,197.6 112.8,198.3 112.8,172.1 112.6,152 
		111.8,147.7 111.6,147.3 111.5,146.7 111.6,145.2 111.9,142.9 112.3,142.3 112.9,142.1 145,142.1 147.2,142.1 160,142.1 159.8,142 
		159.7,140.9 159.7,140.3 160.1,138.6 160.3,136 161.5,130.4 161.8,126.8 162.7,124.8 162.8,124.1 162.9,120.9 163.3,118.7 
		163.2,118.1 162.9,115.9 162.9,115.7 	"/>
	<polygon id="San_Luis" class="st1" points="149,33.6 148.9,33.4 148.6,32.4 148.4,31.5 148.3,30.6 147.3,28.9 147.2,28.4 147.1,28 
		147.1,26.9 147.3,25.6 147.3,24.4 147.3,22.9 147.2,22.3 147.1,21.9 146.9,21.7 146.7,21.6 146.4,21.5 146.2,21.5 145.9,21.5 
		145.2,21.7 141.2,22.8 137,23.3 136.5,23.2 136.2,23.1 136.1,22.8 136,22.3 136,22.1 136,20.1 135.9,19.6 135.8,19.4 135.2,18.4 
		134.8,17.6 134.6,16.6 134.5,16.1 134.4,15.6 134.5,14.7 134.4,14.5 134.3,13.7 134.1,13.4 133.9,13.1 132.8,12 131.7,10.7 
		120.6,3.9 118.6,2.9 117.4,2.5 113.9,2.5 109.9,3.3 108,3.2 107.4,3.1 107.1,3 106.8,2.9 106.2,2.5 106,2.4 105.6,2.2 103.7,1.9 
		102.2,1.9 100.2,2.4 99.3,2.7 97.7,3.7 95.7,4.4 93.7,4.6 91.8,4.4 91.3,4.5 90,4.8 89.5,4.8 89.2,4.7 88.1,4.2 87.6,4 87.2,3.9 
		86.9,3.9 84.8,4.2 84.6,4.2 84.5,4.1 83.7,3.6 83.2,3.4 82.9,3.3 82.7,3.4 81.8,3.8 81.2,3.9 80.8,3.9 80.5,3.8 80.1,3.6 79,3 
		78.1,2.7 75.4,2.1 65.3,2.7 63.8,2.4 63.6,2.3 63.4,2.2 63.2,2 62.7,1.5 62.3,1.4 61.9,1.2 61,1 60.5,1 60.1,1 58.7,1.4 55.4,1.7 
		54.6,1.6 54,1.5 52.7,1.1 51.1,0.7 50.2,1.2 49.8,1.7 49.5,2.2 49.4,2.5 49.3,2.8 49.3,3.1 49.4,3.6 49.6,4.7 49.6,5.2 49.6,5.9 
		49.5,6 49.5,6.1 49.6,6.2 49.6,6.3 49.8,6.8 49.9,7.2 49.8,7.6 49.8,7.8 49.8,7.9 49.2,9.9 49.1,10.4 49,10.9 49.1,11.9 49.2,12.7 
		49.1,15.5 49.2,17 49.1,20.1 49.3,22.1 50.4,26.5 51.3,27.1 51.7,27.5 52,28.1 52.1,28.4 52,29.2 52.1,29.5 52.4,29.9 52.6,30.3 
		52.8,30.7 52.9,31.9 53.5,33.4 53.6,34 53.7,34.7 54.5,38.5 54.7,39.2 55,39.7 55.5,40.2 55.9,40.5 56.2,41 56.3,41.8 56.5,42.6 
		56.9,43.1 57.1,43.6 56.4,45 56.2,46.4 56.1,46.8 56.6,48.7 56.5,49.9 55.9,50.3 55.7,50.9 56.1,52.2 56.9,54.2 56.9,54.8 
		56.6,55.7 56.6,56.2 56.7,56.7 57.1,57.7 57.4,62 57.2,65.7 57.5,67 57.7,67.4 57.7,69.1 58.6,71.3 58.8,72.2 58.6,74.3 58.7,75.2 
		59.1,76.3 62.8,82.8 63.7,83.7 63.9,84.1 64.4,85.8 64.6,86.2 65.2,88.3 66.1,90 67.1,93.2 67.2,94.1 67.5,94.7 68.2,95.3 
		69.6,96.2 70.3,96.8 70.9,97.5 71.4,98.3 71.8,100.5 72.3,101.2 72.9,101.6 73.5,102.1 73.8,102.8 74.1,104.3 74.7,105.5 
		74.8,106.2 74.6,107.7 74.4,110.2 74.3,111.3 73.7,111.9 73.4,112 72.9,111.6 72.6,111.6 72.5,111.8 72.4,112.5 71.8,113.4 
		71.7,114 72.1,115.2 72.2,118.9 72.6,119.8 72.1,120.9 72.5,121.4 73.1,122 73.5,122.9 73.7,127 74.7,130.1 74.8,131.2 75.1,132 
		77,134 81.7,143.4 82.7,146.9 82.8,147.9 82.4,150.4 82.5,151 83.1,152.9 83.2,153.7 83.4,154.3 84.1,155.8 84.3,156.5 84.3,157.4 
		83.5,160.2 84,160.7 84.2,161.1 84.3,161.5 84.3,162.1 84.1,162.7 83.9,163.1 83.8,163.3 84.3,166.3 84.3,167.1 83.9,170.2 
		83.7,174.5 83.5,175.5 82.3,178.2 81.9,183.2 80.2,190.9 79.9,194.4 79.4,196.7 79.4,197.5 79.7,199.1 79.9,199.2 101.8,199.2 
		103.3,199.2 138.6,199.3 140.2,199.3 140.3,199.2 140.5,199.2 140.5,191.6 140.6,150.6 140.6,150.5 140.5,100.6 138.8,64.6 
		138.8,64.3 139,63.8 140.3,61.6 140.4,61.4 140.5,61.2 140.7,61.1 141,61 142,60.8 142.2,60.7 142.5,60.5 142.7,60.1 142.7,59.9 
		142.7,59.6 142.3,58.5 142.3,57.7 142.5,57.2 143.5,55.2 143.7,54.6 143.8,54.2 143.5,53.4 143.4,52.8 143.4,52.4 143.5,52.1 
		145,49.2 145.2,48.7 145.2,48.4 145.3,46.7 145.4,46.2 145.5,45.9 146,44.9 146.1,44.6 146.2,44.3 146.1,43.7 146.1,43.1 
		146.2,42.8 146.3,42.6 146.9,42 147.2,41.6 147.3,41.3 147.4,41 147.7,39 148.6,36.9 148.9,35.6 149,34.1 	"/>
</g>
<g id="Capa_2">
	<path class="st2" d="M81.5,78.1c0.1,0,0.3,0,0.4,0.1c1.9,0.3,3.2,1.3,4,3c0.6,1.5,0.5,3-0.2,4.4c-0.8,1.4-1.6,2.8-2.4,4.2
		c-0.3,0.6-0.6,1.1-1,1.7c-0.4,0.7-1.4,0.8-1.9,0.2c-0.1-0.1-0.1-0.2-0.2-0.2c-1.1-1.8-2.1-3.7-3.2-5.5c-0.5-0.9-0.8-1.8-0.8-2.8
		c0-1.5,0.6-2.8,1.8-3.8c0.7-0.6,1.6-1,2.5-1.1c0.1,0,0.3,0,0.4-0.1C81.2,78.1,81.4,78.1,81.5,78.1z M79.4,82.8c0,1,0.8,1.8,1.8,1.8
		c1,0,1.8-0.8,1.8-1.8c0-1-0.8-1.8-1.8-1.8C80.3,80.9,79.4,81.8,79.4,82.8z"/>
</g>
</svg>
